<svg width="24" height="24" viewBox="0 0 24 24" fill="none" xmlns="http://www.w3.org/2000/svg">
<path d="M14.0566 1.25C15.8943 1.24998 17.3501 1.25016 18.4893 1.40332C19.6616 1.56096 20.6101 1.89329 21.3584 2.6416C22.1067 3.38991 22.439 4.33844 22.5967 5.51074C22.7498 6.64991 22.75 8.10571 22.75 9.94336V14.0566C22.75 15.8943 22.7498 17.3501 22.5967 18.4893C22.439 19.6616 22.1067 20.6101 21.3584 21.3584C20.6101 22.1067 19.6616 22.439 18.4893 22.5967C17.3501 22.7498 15.8943 22.75 14.0566 22.75H12.4434C10.6057 22.75 9.14991 22.7498 8.01074 22.5967C6.83844 22.439 5.88991 22.1067 5.1416 21.3584C4.44966 20.6665 4.11568 19.803 3.94434 18.75H2C1.58579 18.75 1.25 18.4142 1.25 18C1.25 17.5858 1.58579 17.25 2 17.25H3.79687C3.75109 16.3433 3.74999 15.2854 3.75 14.0566L3.75 12.75H2C1.58579 12.75 1.25 12.4142 1.25 12C1.25 11.5858 1.58579 11.25 2 11.25H3.75L3.75 9.94336C3.74999 8.7146 3.75109 7.65673 3.79687 6.75L2 6.75C1.58579 6.75 1.25 6.41421 1.25 6C1.25 5.58579 1.58579 5.25 2 5.25L3.94434 5.25C4.11568 4.19701 4.44966 3.33354 5.1416 2.6416C5.88991 1.89329 6.83844 1.56096 8.01074 1.40332C9.14991 1.25016 10.6057 1.24998 12.4434 1.25L14.0566 1.25ZM12.5 2.75C10.5932 2.75 9.23859 2.7515 8.21094 2.88965C7.20485 3.02491 6.62536 3.27894 6.20215 3.70215C5.77894 4.12536 5.52491 4.70485 5.38965 5.71094C5.2515 6.73859 5.25 8.09324 5.25 10L5.25 14C5.25 15.9068 5.2515 17.2614 5.38965 18.2891C5.52491 19.2952 5.77894 19.8746 6.20215 20.2979C6.62536 20.7211 7.20485 20.9751 8.21094 21.1104C9.23859 21.2485 10.5932 21.25 12.5 21.25H14C15.9068 21.25 17.2614 21.2485 18.2891 21.1104C19.2952 20.9751 19.8746 20.7211 20.2979 20.2979C20.7211 19.8746 20.9751 19.2952 21.1104 18.2891C21.2485 17.2614 21.25 15.9068 21.25 14V10C21.25 8.09324 21.2485 6.73859 21.1104 5.71094C20.9751 4.70485 20.7211 4.12536 20.2979 3.70215C19.8746 3.27894 19.2952 3.02491 18.2891 2.88965C17.2614 2.7515 15.9068 2.75 14 2.75L12.5 2.75ZM13.25 6.25C16.4256 6.25 19 8.82436 19 12V12.5C19 13.7426 17.9926 14.75 16.75 14.75C16.0994 14.75 15.5133 14.4737 15.1025 14.0322C14.6138 14.478 13.9636 14.75 13.25 14.75C11.7312 14.75 10.5 13.5188 10.5 12C10.5001 10.4813 11.7313 9.25 13.25 9.25C13.7445 9.25 14.2084 9.3809 14.6094 9.60938C14.7412 9.39397 14.979 9.25 15.25 9.25C15.6642 9.25 15.9999 9.58587 16 10L16 12.5C16 12.9142 16.3358 13.25 16.75 13.25C17.1642 13.25 17.5 12.9142 17.5 12.5V12C17.5 9.65279 15.5972 7.75 13.25 7.75C10.9028 7.75 9 9.65279 9 12C9 14.3472 10.9028 16.25 13.25 16.25C14.2078 16.25 15.0895 15.934 15.7998 15.4004C16.131 15.1516 16.6018 15.2186 16.8506 15.5498C17.099 15.8809 17.0321 16.3509 16.7012 16.5996C15.74 17.3218 14.5438 17.75 13.25 17.75C10.0744 17.75 7.5 15.1756 7.5 12C7.5 8.82436 10.0744 6.25 13.25 6.25ZM13.25 10.75C12.5597 10.75 12.0001 11.3097 12 12C12 12.6904 12.5596 13.25 13.25 13.25C13.9404 13.25 14.5 12.6904 14.5 12C14.4999 11.3097 13.9403 10.75 13.25 10.75Z" fill="#1B8354"/>
</svg>
