<svg width="24" height="24" viewBox="0 0 24 24" fill="none" xmlns="http://www.w3.org/2000/svg">
<path d="M12.584 4.41309C13.3928 4.19112 14.2758 4.245 15.0537 4.29199L15.1533 4.29785C16.0012 4.3499 16.8097 4.7265 17.4316 5.35645C18.1216 6.05245 18.7064 6.48438 19.4814 6.48438H21.998C22.412 6.48438 22.748 6.82037 22.748 7.23438C22.7479 7.64821 22.4119 7.98438 21.998 7.98438H19.4814C18.1135 7.98438 17.1752 7.22809 16.3652 6.41113C16.0023 6.04325 15.5394 5.82501 15.0605 5.7959L14.96 5.79004C14.2981 5.74905 13.5484 5.70445 12.9795 5.86035C12.3995 6.02035 11.9668 6.50631 11.4658 7.07031L10 8.71973C9.66005 9.10267 9.66015 9.74979 10 10.1328C10.25 10.4148 10.6114 10.4591 10.8984 10.2441C11.0044 10.1652 11.1221 10.064 11.2471 9.95801C11.62 9.64106 12.044 9.28121 12.5479 9.11816C13.6735 8.75429 14.3466 9.66644 14.6348 10.0557L16.9551 13.1895C17.7469 14.2603 18.1441 14.7973 18.582 15.0283C18.989 15.2433 19.5341 15.251 20.8379 15.251H21.9961C22.4101 15.251 22.7461 15.587 22.7461 16.001C22.7461 16.415 22.4101 16.751 21.9961 16.751H20.8418C19.421 16.751 18.6377 16.7515 17.8857 16.3545C17.6358 16.2226 17.4159 16.0569 17.1973 15.8516L15.9385 17.0703C14.2666 18.6862 13.3481 19.5735 12.0742 19.7256C12.0233 19.7316 11.9671 19.7362 11.9111 19.7412H11.8936C11.8187 19.7482 11.7438 19.749 11.6699 19.749C10.4844 19.7486 9.41965 19.0627 7.57422 17.873C6.66751 17.2892 6.21435 16.9973 5.77148 16.8633L5.69922 16.8418C5.25123 16.7178 4.70503 16.7178 3.62109 16.7178H2C1.58615 16.7178 1.25024 16.3816 1.25 15.9678C1.25 15.5538 1.586 15.2178 2 15.2178H3.62109C4.84803 15.2178 5.46434 15.2174 6.11133 15.3994L6.20117 15.4268C6.85003 15.6228 7.39405 15.9735 8.38086 16.6094C10.1309 17.7374 11.0071 18.3021 11.7871 18.2461C11.8219 18.2431 11.8568 18.2403 11.8916 18.2363C12.6686 18.1433 13.4117 17.426 14.8896 15.9971L16.2217 14.707C16.0773 14.516 15.9214 14.3087 15.7529 14.0811L13.4316 10.9473C13.1987 10.6313 13.0958 10.5492 13.0498 10.5352C13.0478 10.5354 13.0354 10.5367 13.0127 10.5439C12.7907 10.6161 12.4876 10.8727 12.2207 11.0996C12.0847 11.2156 11.9427 11.3364 11.8018 11.4424C10.8848 12.131 9.65672 11.9998 8.88184 11.1279C8.03399 10.1729 8.03389 8.6766 8.88184 7.72266L10.2031 6.23438L9.31934 5.86719C8.64934 5.58919 7.9087 5.81973 7.3877 6.46973C6.73377 7.28342 5.815 7.74992 4.86523 7.75H2C1.586 7.75 1.25 7.414 1.25 7C1.25018 6.58616 1.58611 6.25 2 6.25H4.86523C5.36513 6.24992 5.84584 5.99416 6.21777 5.53027C7.15869 4.35738 8.60164 3.94564 9.89355 4.48242L11.2871 5.06152C11.3012 5.06739 11.3146 5.07445 11.3281 5.08105C11.6826 4.79065 12.0867 4.5499 12.584 4.41309Z" fill="#1B8354"/>
</svg>
