<svg width="124" height="124" viewBox="0 0 124 124" fill="none" xmlns="http://www.w3.org/2000/svg">
<path d="M8 1H116C119.866 1 123 4.13401 123 8V116C123 119.866 119.866 123 116 123H8C4.13401 123 1 119.866 1 116V8C1 4.13401 4.13401 1 8 1Z" fill="white"/>
<path d="M8 1H116C119.866 1 123 4.13401 123 8V116C123 119.866 119.866 123 116 123H8C4.13401 123 1 119.866 1 116V8C1 4.13401 4.13401 1 8 1Z" stroke="#D2D6DB" stroke-width="2"/>
<path d="M43.3853 113.269C50.9344 119.114 61.7589 119.045 69.0083 112.554C84.8518 98.3678 99.3618 83.5408 113.36 67.2539C115.235 65.0726 116.436 62.3629 116.706 59.4287C117.138 54.7265 117.806 45.5265 117.432 36.5234C117.246 32.0285 116.795 27.4546 115.877 23.459C114.989 19.5912 113.536 15.6734 110.931 13.0684C108.326 10.4635 104.408 9.01039 100.541 8.12207C96.545 7.20444 91.9709 6.75385 87.4761 6.56738C78.4732 6.19392 69.2739 6.86285 64.5718 7.29492C61.6375 7.56454 58.9279 8.76489 56.7466 10.6396C40.4596 24.6378 25.6328 39.1486 11.4468 54.9922C4.95588 62.2415 4.88704 73.0651 10.7319 80.6143C20.3716 93.0643 30.9352 103.629 43.3853 113.269ZM63.8384 106.779C59.5109 110.654 52.8683 110.809 48.1304 107.141C36.198 97.9018 26.0987 87.8025 16.8599 75.8701C13.1915 71.1323 13.3456 64.4898 17.2202 60.1621C31.1778 44.5736 45.7635 30.299 61.7983 16.5176C62.8124 15.646 64.0193 15.1286 65.2808 15.0127C69.856 14.5923 78.6595 13.9591 87.1548 14.3115C91.409 14.488 95.4587 14.9069 98.8062 15.6758C102.281 16.474 104.427 17.5245 105.452 18.5488C106.476 19.5733 107.526 21.7193 108.324 25.1943C109.093 28.5417 109.512 32.5906 109.689 36.8447C110.041 45.3399 109.408 54.1433 108.988 58.7188C108.872 59.9803 108.354 61.188 107.483 62.2021C93.7016 78.2369 79.4268 92.8217 63.8384 106.779ZM90.4165 45.208C96.8368 45.208 102.042 40.0033 102.042 33.583C102.041 27.1629 96.8367 21.958 90.4165 21.958C83.9965 21.9582 78.7917 27.163 78.7915 33.583C78.7915 40.0032 83.9964 45.2078 90.4165 45.208ZM90.4165 37.458C88.2766 37.4578 86.5415 35.723 86.5415 33.583C86.5417 31.4432 88.2767 29.7082 90.4165 29.708C92.5565 29.708 94.2913 31.4431 94.2915 33.583C94.2915 35.7231 92.5566 37.458 90.4165 37.458ZM56.8911 56.833C59.7443 56.8328 62.057 54.5202 62.0571 51.667C62.0571 48.8136 59.7444 46.5002 56.8911 46.5H56.813C53.9597 46.5002 51.647 48.8137 51.647 51.667C51.6471 54.5202 53.9598 56.8328 56.813 56.833H56.8911ZM77.5005 71.042C79.6404 71.0419 81.3754 69.3069 81.3755 67.167C81.3755 65.027 79.6405 63.2921 77.5005 63.292L36.1665 63.292C34.0266 63.2922 32.2915 65.027 32.2915 67.167C32.2916 69.3068 34.0267 71.0418 36.1665 71.042L77.5005 71.042ZM56.9097 87.833C59.7631 87.833 62.0765 85.5204 62.0767 82.667C62.0767 79.8135 59.7631 77.5 56.9097 77.5H56.8325C53.9791 77.5 51.6655 79.8135 51.6655 82.667C51.6657 85.5203 53.9791 87.833 56.8325 87.833H56.9097Z" fill="#1B8354"/>
</svg>
