<svg width="24" height="24" viewBox="0 0 24 24" fill="none" xmlns="http://www.w3.org/2000/svg">
<path d="M18.4965 1.25C18.9107 1.25 19.2465 1.58579 19.2465 2C19.2465 2.41421 18.9107 2.75 18.4965 2.75H6.30804C5.86257 2.75 5.55117 2.82071 5.34418 2.97266C4.83042 3.3499 4.39807 3.94842 4.28168 4.59668C4.17368 5.19856 4.3184 5.94239 5.14398 6.72656C5.5095 7.07371 6.06887 7.24121 6.72699 7.24121H16.7495V6.44531C16.7495 6.03111 16.4136 5.69531 15.9995 5.69531H7.49945C7.08544 5.69508 6.74945 5.35938 6.74945 4.94531C6.74945 4.53124 7.08544 4.19555 7.49945 4.19531H15.9995C17.2421 4.19531 18.2495 5.20266 18.2495 6.44531V7.24121H18.2836C18.691 7.24122 19.4647 7.25966 20.1303 7.74414C20.8439 8.26372 21.2504 9.16943 21.2504 10.5273V17.9814C21.2503 20.6113 19.128 22.75 16.5024 22.75H7.47211C6.18752 22.7499 5.04196 22.2926 4.19965 21.458C3.35915 20.625 2.86241 19.4587 2.79047 18.1113L2.78949 18.0918L2.75629 5.16797C2.75628 5.16307 2.7562 5.15819 2.75629 5.15332C2.73934 4.87621 2.7567 4.60073 2.80511 4.33105C3.00239 3.23281 3.69692 2.3214 4.45648 1.76367C5.05291 1.32586 5.75961 1.25 6.30804 1.25H18.4965ZM4.28949 18.0498C4.34758 19.0648 4.71522 19.8573 5.25531 20.3926C5.79667 20.9289 6.55379 21.2499 7.47211 21.25H16.5024C18.292 21.25 19.7503 19.7904 19.7504 17.9814V10.5273C19.7504 9.46238 19.4438 9.09996 19.2475 8.95703C19.0034 8.77938 18.6696 8.74122 18.2836 8.74121H6.72699C5.9135 8.74121 4.99045 8.55201 4.26312 7.94922L4.28949 18.0498ZM11.9995 16.1953C12.4137 16.1953 12.7495 16.5311 12.7495 16.9453C12.7495 17.3595 12.4137 17.6953 11.9995 17.6953H8.99945C8.58544 17.6951 8.24945 17.3594 8.24945 16.9453C8.24945 16.5312 8.58544 16.1955 8.99945 16.1953H11.9995ZM14.9995 12.1953C15.4137 12.1953 15.7495 12.5311 15.7495 12.9453C15.7495 13.3595 15.4137 13.6953 14.9995 13.6953H8.99945C8.58544 13.6951 8.24945 13.3594 8.24945 12.9453C8.24945 12.5312 8.58544 12.1955 8.99945 12.1953H14.9995Z" fill="#1B8354"/>
</svg>
