<svg width="22" height="22" viewBox="0 0 22 22" fill="none" xmlns="http://www.w3.org/2000/svg">
<path d="M2.56704 19.387C2.96404 19.46 3.36502 19.496 3.76602 19.496L3.76704 19.4971C4.84904 19.4971 5.92503 19.2351 6.88403 18.7261L6.98301 18.675L7.01123 18.6606C7.1731 18.5783 7.33505 18.4958 7.42104 18.459C7.45705 18.463 7.51704 18.47 7.61104 18.488C8.01904 18.564 8.41001 18.2961 8.48701 17.8891C8.56301 17.4821 8.29504 17.09 7.88804 17.013C7.60904 16.961 7.412 16.9461 7.229 16.9641C7.203 16.9671 7.176 16.9711 7.15 16.9761C6.919 17.0241 6.713 17.1291 6.302 17.3391L6.19805 17.392L6.18701 17.398C5.51201 17.757 4.76203 17.958 4.00103 17.992C4.19603 17.578 4.34003 17.137 4.42803 16.679C4.55503 16.004 4.309 15.295 3.752 14.732C2.3 13.272 1.50103 11.365 1.50103 9.36104C1.50103 5.02704 5.23703 1.50107 9.83003 1.50107C13.834 1.50107 17.276 4.19107 18.015 7.89707C18.096 8.30307 18.49 8.56503 18.897 8.48604C19.303 8.40504 19.567 8.01 19.486 7.604C18.608 3.198 14.547 0 9.829 0C4.409 0 0 4.19906 0 9.36006C0 11.7621 0.95401 14.046 2.68501 15.787C2.78201 15.885 3.00103 16.14 2.95303 16.398C2.82603 17.057 2.54 17.67 2.125 18.171C1.955 18.376 1.90705 18.6561 1.99805 18.9061C2.08805 19.1561 2.30504 19.339 2.56704 19.387Z" fill="white"/>
<path fill-rule="evenodd" clip-rule="evenodd" d="M16.892 20.992C17.5169 21.3269 18.2147 21.4999 18.9165 21.5C19.1804 21.5 19.4442 21.475 19.705 21.4261C19.965 21.3771 20.179 21.1951 20.27 20.9471C20.36 20.6991 20.314 20.421 20.147 20.216C19.922 19.94 19.773 19.62 19.705 19.267C19.709 19.249 19.73 19.202 19.778 19.155L19.787 19.146C20.89 18.027 21.498 16.558 21.498 15.009C21.498 11.695 18.694 8.99902 15.248 8.99902C11.802 8.99902 8.99805 11.695 8.99805 15.009C8.99805 18.323 11.802 21.019 15.248 21.019C15.666 21.019 16.068 20.981 16.444 20.907C16.4595 20.9045 16.4746 20.9021 16.4893 20.8997C16.521 20.8946 16.5507 20.8898 16.578 20.8851C16.604 20.8811 16.634 20.8761 16.66 20.8721C16.704 20.8941 16.762 20.9241 16.815 20.9521L16.892 20.992ZM17.51 19.6221C17.269 19.4961 17.104 19.41 16.906 19.379C16.709 19.343 16.533 19.3721 16.331 19.4061C16.2998 19.4115 16.2655 19.417 16.2281 19.4229C16.2177 19.4246 16.207 19.4263 16.196 19.428C16.186 19.429 16.176 19.431 16.166 19.433C15.882 19.49 15.574 19.519 15.249 19.519C12.63 19.519 10.499 17.496 10.499 15.009C10.499 12.522 12.63 10.499 15.249 10.499C17.868 10.499 19.999 12.522 19.999 15.009C19.999 16.159 19.546 17.252 18.724 18.088C18.319 18.488 18.135 19.029 18.231 19.538C18.256 19.673 18.29 19.806 18.33 19.937C18.076 19.883 17.829 19.7921 17.598 19.6681C17.595 19.6661 17.589 19.663 17.589 19.663L17.51 19.6221Z" fill="white"/>
</svg>
