<svg width="24" height="24" viewBox="0 0 24 24" fill="none" xmlns="http://www.w3.org/2000/svg">
<path d="M7.00024 2.25C7.41442 2.25004 7.75024 2.58581 7.75024 3C7.75024 3.41419 7.41442 3.74996 7.00024 3.75C5.2054 3.75 3.75026 5.20516 3.75024 7V13C3.75023 14.9068 3.75175 16.2614 3.88989 17.2891C4.02515 18.2952 4.27918 18.8746 4.70239 19.2979C5.1256 19.721 5.70511 19.9751 6.71118 20.1104C7.73884 20.2485 9.09349 20.25 11.0002 20.25H14.0002C14.9424 20.25 15.6116 20.2498 16.1379 20.2139C16.6571 20.1784 16.9826 20.1109 17.2434 20.0029C18.0397 19.6731 18.6733 19.0404 19.0032 18.2441C19.1112 17.9832 19.1787 17.6573 19.2141 17.1377C19.25 16.6113 19.2502 15.9421 19.2502 15C19.2502 14.5858 19.586 14.25 20.0002 14.25C20.4144 14.25 20.7502 14.5858 20.7502 15V15.0273C20.7502 15.9358 20.75 16.6559 20.7102 17.2393C20.6696 17.8351 20.5852 18.3433 20.3889 18.8174C19.9068 19.9813 18.9815 20.9066 17.8176 21.3887C17.3436 21.585 16.8354 21.6693 16.2395 21.71C15.6561 21.7497 14.9361 21.75 14.0276 21.75H10.9436C9.10593 21.75 7.65016 21.7498 6.51099 21.5967C5.33867 21.439 4.39016 21.1067 3.64185 20.3584C2.89355 19.6101 2.5612 18.6616 2.40356 17.4893C2.25042 16.3501 2.25021 14.8943 2.25024 13.0566V7C2.25027 4.37674 4.37698 2.25 7.00024 2.25ZM13.7043 3.31055C13.893 3.22969 14.1075 3.22969 14.2961 3.31055L21.2961 6.31055C21.5717 6.42881 21.7502 6.70011 21.7502 7C21.7502 7.29989 21.5717 7.57119 21.2961 7.68945L21.2502 7.70898V11.2695C21.2501 11.6836 20.9144 12.0195 20.5002 12.0195C20.0861 12.0195 19.7504 11.6836 19.7502 11.2695V8.35156L18.7229 8.79199L18.3108 12.5615C18.2388 13.1378 17.8793 13.6666 17.3098 13.9111C16.6233 14.206 15.2123 14.75 14.0002 14.75C12.7882 14.75 11.3772 14.206 10.6907 13.9111C10.1212 13.6666 9.76174 13.1378 9.6897 12.5615L9.68774 12.5508L9.27759 8.79199L6.70435 7.68945C6.42878 7.57119 6.25025 7.29989 6.25024 7C6.25024 6.70011 6.42878 6.42881 6.70435 6.31055L13.7043 3.31055ZM14.2961 10.6895C14.1075 10.7703 13.893 10.7703 13.7043 10.6895L10.8606 9.4707L11.179 12.3799C11.1908 12.4646 11.2382 12.5142 11.2825 12.5332C11.9681 12.8276 13.1264 13.25 14.0002 13.25C14.8741 13.25 16.0324 12.8276 16.718 12.5332C16.7623 12.5142 16.8097 12.4646 16.8215 12.3799L17.1399 9.4707L14.2961 10.6895ZM8.90454 7L14.0002 9.18359L19.0959 7L14.0002 4.81641L8.90454 7Z" fill="#1B8354"/>
</svg>
