<svg width="56" height="56" viewBox="0 0 56 56" fill="none" xmlns="http://www.w3.org/2000/svg">
<path d="M0 28C0 12.536 12.536 0 28 0C43.464 0 56 12.536 56 28C56 43.464 43.464 56 28 56C12.536 56 0 43.464 0 28Z" fill="#F3FCF6"/>
<path d="M27.4932 15.457C29.7657 15.457 31.5757 15.4573 32.9941 15.6816C34.47 15.9151 35.6414 16.4082 36.5479 17.4746C37.2631 18.3162 37.6578 19.3327 37.8838 20.5635C38.1071 21.7794 38.175 23.261 38.1973 25.0713C38.2032 25.5545 37.8162 25.9511 37.333 25.957C36.8499 25.9628 36.4532 25.5759 36.4473 25.0928C36.4251 23.2877 36.3571 21.9366 36.1631 20.8799C35.9718 19.838 35.6684 19.1411 35.2148 18.6074C34.6691 17.9654 33.9451 17.6038 32.7207 17.4102C31.4546 17.2099 29.7832 17.207 27.417 17.207C25.0507 17.207 23.3785 17.2099 22.1123 17.4102C20.8882 17.6038 20.1648 17.9655 19.6191 18.6074C19.056 19.27 18.7239 20.1828 18.5508 21.6973C18.3763 23.2244 18.375 25.2281 18.375 27.999C18.375 30.77 18.3763 32.7736 18.5508 34.3008C18.7239 35.8152 19.056 36.7281 19.6191 37.3906C20.1648 38.0325 20.8882 38.3942 22.1123 38.5879C23.3785 38.7882 25.0507 38.791 27.417 38.791C27.9001 38.7912 28.292 39.1829 28.292 39.666C28.2918 40.149 27.9 40.5408 27.417 40.541H27.3408C25.0682 40.541 23.2573 40.5408 21.8389 40.3164C20.3631 40.0829 19.1916 39.5898 18.2852 38.5234C17.3964 37.4776 17.0024 36.1611 16.8125 34.499C16.6253 32.8609 16.625 30.7576 16.625 28.0566V27.9414C16.625 25.2405 16.6253 23.1372 16.8125 21.499C17.0024 19.8369 17.3964 18.5205 18.2852 17.4746C19.1916 16.4082 20.3631 15.9151 21.8389 15.6816C23.2573 15.4573 25.0682 15.457 27.3408 15.457H27.4932ZM34.5625 27.124C37.2204 27.124 39.375 29.2787 39.375 31.9365C39.375 33.3047 38.8036 34.5397 37.8887 35.415L38.3994 37.0234C38.5222 37.4101 38.6258 37.7359 38.6924 37.9961C38.7557 38.2435 38.8205 38.5537 38.7773 38.8633C38.6476 39.7915 37.8753 40.5374 36.8994 40.541C36.5742 40.5422 36.2717 40.4209 36.0479 40.3203C35.8093 40.2131 35.5145 40.0583 35.1689 39.877L35.1445 39.8643C34.8 39.6834 34.728 39.6496 34.666 39.6309C34.5031 39.5817 34.3309 39.5818 34.168 39.6309C34.1059 39.6496 34.0337 39.6831 33.6885 39.8643L33.6641 39.877C33.3185 40.0583 33.0237 40.2131 32.7852 40.3203C32.5613 40.4209 32.2588 40.5422 31.9336 40.541C30.9578 40.5372 30.1853 39.7914 30.0557 38.8633C30.0125 38.5537 30.0773 38.2435 30.1406 37.9961C30.2072 37.7359 30.3108 37.4101 30.4336 37.0234L30.9453 35.415C30.0303 34.5397 29.458 33.3047 29.458 31.9365C29.458 29.2788 31.6128 27.1242 34.2705 27.124H34.5625ZM36.3652 36.3994C35.8081 36.6246 35.1993 36.749 34.5625 36.749H34.2705C33.6338 36.749 33.0248 36.6246 32.4678 36.3994L32.1104 37.5273C31.9774 37.946 31.8887 38.2247 31.8359 38.4307C31.8023 38.5621 31.7952 38.6242 31.793 38.6416C31.8126 38.7331 31.8702 38.7737 31.9131 38.7861C31.9385 38.7775 31.9883 38.7596 32.0684 38.7236C32.252 38.6411 32.4991 38.5122 32.876 38.3145C32.8941 38.305 32.9119 38.2955 32.9297 38.2861C33.1906 38.1489 33.419 38.0284 33.6621 37.9551C34.1546 37.8065 34.6784 37.8066 35.1709 37.9551C35.414 38.0284 35.6424 38.1489 35.9033 38.2861C35.9212 38.2955 35.9398 38.3049 35.958 38.3145C36.335 38.5123 36.582 38.6411 36.7656 38.7236C36.8454 38.7595 36.8944 38.7775 36.9199 38.7861C36.9628 38.7738 37.0214 38.7334 37.041 38.6416C37.0388 38.6242 37.0307 38.5622 36.9971 38.4307C36.9443 38.2247 36.8566 37.946 36.7236 37.5273L36.3652 36.3994ZM34.2705 28.874C32.5793 28.8742 31.208 30.2453 31.208 31.9365C31.208 32.9543 31.7038 33.8568 32.4707 34.415C32.9758 34.7827 33.5967 34.999 34.2705 34.999H34.5625C35.2364 34.999 35.8572 34.7826 36.3623 34.415C37.1292 33.8568 37.625 32.9543 37.625 31.9365C37.625 30.2452 36.2539 28.874 34.5625 28.874H34.2705ZM26.833 28.291C27.3163 28.291 27.708 28.6828 27.708 29.166C27.7078 29.6491 27.3161 30.041 26.833 30.041H23.333C22.85 30.0408 22.4582 29.649 22.458 29.166C22.458 28.6829 22.8499 28.2912 23.333 28.291H26.833ZM31.5 22.457C31.9831 22.457 32.3748 22.8489 32.375 23.332C32.375 23.8153 31.9832 24.207 31.5 24.207H23.333C22.8499 24.2069 22.458 23.8152 22.458 23.332C22.4582 22.849 22.85 22.4572 23.333 22.457H31.5Z" fill="#067647"/>
</svg>
