<svg width="24" height="24" viewBox="0 0 24 24" fill="none" xmlns="http://www.w3.org/2000/svg">
<path d="M11.5654 1.25C13.5132 1.24998 15.0645 1.25012 16.2803 1.44238C17.5452 1.64246 18.5492 2.06464 19.3262 2.97852C19.9394 3.69991 20.2779 4.57192 20.4717 5.62695C20.663 6.66917 20.7212 7.93952 20.7402 9.49121C20.7451 9.9052 20.414 10.2449 20 10.25C19.5858 10.2551 19.2463 9.92297 19.2412 9.50879C19.2222 7.96142 19.1634 6.80328 18.9971 5.89746C18.8331 5.0043 18.5724 4.40766 18.1836 3.9502C17.7158 3.39991 17.0954 3.08983 16.0459 2.92383C14.9607 2.75222 13.5281 2.75 11.5 2.75C9.47192 2.75 8.03933 2.75222 6.9541 2.92383C5.90459 3.08983 5.28419 3.39991 4.81641 3.9502C4.33368 4.51811 4.04876 5.30045 3.90039 6.59863C3.7508 7.90764 3.75 9.62489 3.75 12C3.75 14.3751 3.7508 16.0924 3.90039 17.4014C4.04876 18.6996 4.33368 19.4819 4.81641 20.0498C5.28419 20.6001 5.90459 20.9102 6.9541 21.0762C8.03933 21.2478 9.47192 21.25 11.5 21.25C11.9142 21.25 12.25 21.5858 12.25 22C12.25 22.4142 11.9142 22.75 11.5 22.75H11.4346C9.48679 22.75 7.9355 22.7499 6.71973 22.5576C5.45479 22.3575 4.45079 21.9354 3.67383 21.0215C2.91178 20.125 2.57299 18.9962 2.41016 17.5713C2.24973 16.1672 2.24999 14.3646 2.25 12.0498V11.9502C2.24999 9.63537 2.24973 7.83275 2.41016 6.42871C2.57299 5.00383 2.91178 3.87505 3.67383 2.97852C4.45079 2.06464 5.45479 1.64246 6.71973 1.44238C7.9355 1.25012 9.48679 1.24998 11.4346 1.25H11.5654ZM17.625 11.25C19.9032 11.25 21.75 13.0968 21.75 15.375C21.75 16.5477 21.2598 17.6062 20.4756 18.3564L20.9141 19.7354C21.0193 20.0667 21.108 20.3464 21.165 20.5693C21.2193 20.7812 21.2752 21.0464 21.2383 21.3115C21.1273 22.1074 20.4646 22.747 19.6279 22.75C19.3493 22.751 19.0903 22.6477 18.8984 22.5615C18.6939 22.4696 18.4408 22.3362 18.1445 22.1807L18.124 22.1699C17.8287 22.0149 17.767 21.9858 17.7139 21.9697C17.5741 21.9276 17.4259 21.9276 17.2861 21.9697C17.233 21.9858 17.1713 22.0149 16.876 22.1699L16.8555 22.1807C16.5592 22.3362 16.3061 22.4696 16.1016 22.5615C15.9097 22.6477 15.6507 22.751 15.3721 22.75C14.5354 22.747 13.8727 22.1074 13.7617 21.3115C13.7248 21.0464 13.7807 20.7812 13.835 20.5693C13.892 20.3464 13.9807 20.0667 14.0859 19.7354L14.5244 18.3564C13.7402 17.6062 13.25 16.5477 13.25 15.375C13.25 13.0968 15.0968 11.25 17.375 11.25H17.625ZM19.1699 19.2002C18.6924 19.3932 18.1708 19.5 17.625 19.5H17.375C16.8292 19.5 16.3076 19.3932 15.8301 19.2002L15.5225 20.167C15.4085 20.5258 15.3333 20.7649 15.2881 20.9414C15.2592 21.0541 15.2529 21.1071 15.251 21.1221C15.2678 21.2008 15.3177 21.2356 15.3545 21.2461C15.3764 21.2387 15.419 21.2231 15.4873 21.1924C15.6446 21.1217 15.856 21.0111 16.1787 20.8418C16.1943 20.8336 16.2103 20.8254 16.2256 20.8174C16.4493 20.6998 16.6451 20.597 16.8535 20.5342C17.2757 20.4069 17.7243 20.4069 18.1465 20.5342C18.3549 20.597 18.5507 20.6998 18.7744 20.8174C18.7897 20.8254 18.8057 20.8336 18.8213 20.8418C19.144 21.0111 19.3554 21.1217 19.5127 21.1924C19.581 21.2231 19.6236 21.2387 19.6455 21.2461C19.6823 21.2356 19.7322 21.2008 19.749 21.1221C19.7471 21.1071 19.7408 21.0541 19.7119 20.9414C19.6667 20.7649 19.5915 20.5258 19.4775 20.167L19.1699 19.2002ZM17.375 12.75C15.9253 12.75 14.75 13.9253 14.75 15.375C14.75 16.2474 15.1747 17.0205 15.832 17.499C16.265 17.8142 16.7973 18 17.375 18H17.625C18.2027 18 18.735 17.8142 19.168 17.499C19.8253 17.0205 20.25 16.2474 20.25 15.375C20.25 13.9253 19.0747 12.75 17.625 12.75H17.375ZM11 12.25C11.4142 12.25 11.75 12.5858 11.75 13C11.75 13.4142 11.4142 13.75 11 13.75H8C7.58579 13.75 7.25 13.4142 7.25 13C7.25 12.5858 7.58579 12.25 8 12.25H11ZM15 7.25C15.4142 7.25 15.75 7.58579 15.75 8C15.75 8.41421 15.4142 8.75 15 8.75H8C7.58579 8.75 7.25 8.41421 7.25 8C7.25 7.58579 7.58579 7.25 8 7.25H15Z" fill="#1B8354"/>
</svg>
