<svg width="24" height="24" viewBox="0 0 24 24" fill="none" xmlns="http://www.w3.org/2000/svg">
<path d="M6.5 1.25C8.96869 1.25 11.0388 2.95407 11.5996 5.25H12.0498C12.7145 5.24996 13.2874 5.24986 13.7461 5.31152C14.2376 5.37764 14.7086 5.527 15.0908 5.90918C15.473 6.29136 15.6224 6.76236 15.6885 7.25391C15.709 7.40678 15.7223 7.5726 15.7314 7.75H17.334C17.7211 7.74998 18.0636 7.75043 18.3506 7.77832C18.6616 7.80858 18.9649 7.87502 19.2598 8.04199C19.5545 8.20896 19.7672 8.43447 19.9531 8.68555C20.1247 8.91727 20.3009 9.21102 20.5 9.54297L22.2158 12.4014C22.2278 12.4213 22.2392 12.4414 22.251 12.4609C22.4283 12.7558 22.5856 13.0173 22.668 13.3145C22.7503 13.6119 22.7504 13.9174 22.75 14.2617V17.0322C22.75 17.472 22.7499 17.8518 22.7217 18.1631C22.6918 18.4921 22.6255 18.8179 22.4482 19.125C22.2508 19.4669 21.9669 19.7508 21.625 19.9482C21.3179 20.1255 20.9921 20.1918 20.6631 20.2217C20.512 20.2354 20.3444 20.2415 20.1621 20.2451C19.8251 21.6807 18.5384 22.75 17 22.75C15.4633 22.75 14.1765 21.6832 13.8379 20.25H10.1621C9.82345 21.6832 8.53672 22.75 7 22.75C5.46155 22.75 4.17381 21.6808 3.83691 20.2451C3.655 20.2415 3.48774 20.2353 3.33691 20.2217C3.00788 20.1918 2.68207 20.1255 2.375 19.9482C2.03306 19.7508 1.74921 19.4669 1.55176 19.125C1.37447 18.8179 1.30817 18.4921 1.27832 18.1631C1.25011 17.8518 1.24998 17.472 1.25 17.0322L1.25 12C1.25 11.5858 1.58579 11.25 2 11.25C2.41421 11.25 2.75 11.5858 2.75 12L2.75 17C2.75 17.4811 2.75112 17.7919 2.77246 18.0273C2.79287 18.2524 2.827 18.3341 2.85059 18.375C2.9164 18.489 3.01102 18.5836 3.125 18.6494C3.16586 18.673 3.24761 18.7071 3.47266 18.7275C3.57711 18.737 3.69649 18.742 3.83887 18.7451C4.17928 17.3143 5.46501 16.25 7 16.25C8.53672 16.25 9.82345 17.3168 10.1621 18.75H13.8379C13.9264 18.3755 14.0786 18.0258 14.2842 17.7139C14.2639 17.6458 14.25 17.5746 14.25 17.5L14.25 9C14.25 8.27178 14.2488 7.80097 14.2021 7.4541C14.1584 7.1288 14.0874 7.02682 14.0303 6.96973C13.9732 6.91263 13.8712 6.84159 13.5459 6.79785C13.199 6.75123 12.7282 6.75 12 6.75H11.7441C11.6137 9.53341 9.31569 11.75 6.5 11.75C3.6005 11.75 1.25 9.3995 1.25 6.5C1.25 3.6005 3.6005 1.25 6.5 1.25ZM7 17.75C6.0335 17.75 5.25 18.5335 5.25 19.5C5.25 20.4665 6.0335 21.25 7 21.25C7.9665 21.25 8.75 20.4665 8.75 19.5C8.75 18.5335 7.9665 17.75 7 17.75ZM17 17.75C16.0335 17.75 15.25 18.5335 15.25 19.5C15.25 20.4665 16.0335 21.25 17 21.25C17.9665 21.25 18.75 20.4665 18.75 19.5C18.75 18.5335 17.9665 17.75 17 17.75ZM15.75 16.5C16.1349 16.3394 16.5569 16.25 17 16.25C18.5349 16.25 19.8197 17.3144 20.1602 18.7451C20.303 18.742 20.4226 18.737 20.5273 18.7275C20.7524 18.7071 20.8341 18.673 20.875 18.6494C20.989 18.5836 21.0836 18.489 21.1494 18.375C21.173 18.3341 21.2071 18.2524 21.2275 18.0273C21.2489 17.7919 21.25 17.4811 21.25 17V14.3311C21.25 13.8783 21.2436 13.7906 21.2227 13.7148C21.2017 13.6393 21.1619 13.5609 20.9297 13.1738L19.2305 10.3428C19.0097 9.97479 18.8711 9.74431 18.748 9.57813C18.6349 9.42534 18.5693 9.37537 18.5205 9.34766C18.4716 9.31999 18.3947 9.28894 18.2051 9.27051C17.9993 9.25052 17.7306 9.25 17.3018 9.25H15.75L15.75 16.5ZM6.5 2.75C4.42893 2.75 2.75 4.42893 2.75 6.5C2.75 8.57107 4.42893 10.25 6.5 10.25C8.57107 10.25 10.25 8.57107 10.25 6.5C10.25 4.42893 8.57107 2.75 6.5 2.75ZM6.5 3.9502C6.91421 3.9502 7.25 4.28598 7.25 4.7002V6.54883L8.26562 7.22559C8.61024 7.45533 8.70332 7.92099 8.47363 8.26563C8.24387 8.61027 7.77824 8.7034 7.43359 8.47363L6.08398 7.57422C5.87539 7.43516 5.75007 7.20089 5.75 6.9502L5.75 4.7002C5.75 4.28598 6.08579 3.9502 6.5 3.9502Z" fill="#1B8354"/>
</svg>
