<svg width="48" height="48" viewBox="0 0 48 48" fill="none" xmlns="http://www.w3.org/2000/svg">
<path d="M0 24C0 10.7452 10.7452 0 24 0C37.2548 0 48 10.7452 48 24C48 37.2548 37.2548 48 24 48C10.7452 48 0 37.2548 0 24Z" fill="#F3FCF6"/>
<path fill-rule="evenodd" clip-rule="evenodd" d="M17.8257 19.4244C17.8257 16.0144 20.5901 13.25 24.0001 13.25C27.4102 13.25 30.1746 16.0144 30.1746 19.4244C30.1746 21.1381 30.2098 22.4544 30.4228 23.5255C30.7491 22.5083 31.5131 21.4992 32.5064 20.4773C32.7951 20.1802 33.27 20.1735 33.567 20.4622C33.864 20.7509 33.8708 21.2257 33.5821 21.5227C32.1543 22.9916 31.6788 23.9956 31.7588 24.7458C31.8355 25.4655 32.4732 26.3141 34.3589 27.3414C34.6784 27.5154 34.8208 27.8879 34.7166 28.2224C34.7445 28.3126 34.7557 28.4091 34.7475 28.5072C34.7207 28.827 34.4933 29.0942 34.182 29.1721C33.0853 29.4462 32.5692 29.6861 32.2388 30.0164C31.9084 30.3468 31.6686 30.863 31.3944 31.9597C31.3109 32.2936 31.011 32.5278 30.6668 32.5278C28.9014 32.5278 27.9258 33.0204 27.1015 33.5276C26.9925 33.5948 26.8816 33.6659 26.768 33.7388C26.0357 34.2086 25.1918 34.75 24.0001 34.75C22.8085 34.75 21.9647 34.2087 21.2324 33.7389C21.1189 33.666 21.0078 33.5948 20.8987 33.5276C20.0744 33.0204 19.0989 32.5278 17.3335 32.5278C16.9893 32.5278 16.6893 32.2936 16.6059 31.9597C16.3317 30.863 16.0919 30.3468 15.7615 30.0164C15.4311 29.6861 14.9149 29.4462 13.8182 29.1721C13.5069 29.0942 13.2796 28.827 13.2528 28.5072C13.2445 28.4091 13.2557 28.3126 13.2837 28.2224C13.1795 27.8879 13.3219 27.5154 13.6414 27.3414C15.5271 26.3141 16.1648 25.4655 16.2415 24.7458C16.3215 23.9956 15.8459 22.9916 14.4182 21.5227C14.1295 21.2257 14.1363 20.7509 14.4333 20.4622C14.7303 20.1735 15.2051 20.1802 15.4938 20.4773C16.4871 21.4992 17.2512 22.5083 17.5775 23.5255C17.7905 22.4544 17.8257 21.1381 17.8257 19.4244ZM24.0001 14.75C21.4185 14.75 19.3257 16.8428 19.3257 19.4244C19.3257 21.768 19.2767 23.7064 18.6059 25.2946C18.0889 26.5187 17.231 27.4826 15.902 28.3042C16.2495 28.4791 16.5557 28.6894 16.8221 28.9558C17.3549 29.4885 17.663 30.1804 17.9132 31.0439C19.6905 31.1447 20.7965 31.7034 21.6849 32.2501C21.8262 32.3371 21.9571 32.4196 22.08 32.4971C22.8209 32.964 23.2748 33.25 24.0001 33.25C24.7254 33.25 25.1792 32.9641 25.9201 32.4972C26.0431 32.4197 26.1741 32.3371 26.3154 32.2501C27.2038 31.7034 28.3098 31.1447 30.0871 31.0439C30.3373 30.1804 30.6454 29.4885 31.1781 28.9558C31.4446 28.6894 31.7507 28.4791 32.0983 28.3042C30.7693 27.4826 29.9114 26.5187 29.3944 25.2946C28.7236 23.7064 28.6746 21.768 28.6746 19.4244C28.6746 16.8428 26.5818 14.75 24.0001 14.75Z" fill="#067647"/>
</svg>
