<svg width="32" height="32" viewBox="0 0 32 32" fill="none" xmlns="http://www.w3.org/2000/svg">
<path d="M0 8C0 3.58172 3.58172 0 8 0H24C28.4183 0 32 3.58172 32 8V24C32 28.4183 28.4183 32 24 32H8C3.58172 32 0 28.4183 0 24V8Z" fill="#EFF8FF"/>
<path d="M15.5654 5.25C17.5132 5.24998 19.0645 5.25012 20.2803 5.44238C21.5452 5.64246 22.5492 6.06464 23.3262 6.97852C23.9394 7.69991 24.2779 8.57192 24.4717 9.62695C24.663 10.6692 24.7212 11.9395 24.7402 13.4912C24.7451 13.9052 24.414 14.2449 24 14.25C23.5858 14.2551 23.2463 13.923 23.2412 13.5088C23.2222 11.9614 23.1634 10.8033 22.9971 9.89746C22.8331 9.0043 22.5724 8.40766 22.1836 7.9502C21.7158 7.39991 21.0954 7.08983 20.0459 6.92383C18.9607 6.75222 17.5281 6.75 15.5 6.75C13.4719 6.75 12.0393 6.75222 10.9541 6.92383C9.90459 7.08983 9.28419 7.39991 8.81641 7.9502C8.33368 8.51811 8.04876 9.30045 7.90039 10.5986C7.7508 11.9076 7.75 13.6249 7.75 16C7.75 18.3751 7.7508 20.0924 7.90039 21.4014C8.04876 22.6996 8.33368 23.4819 8.81641 24.0498C9.28419 24.6001 9.90459 24.9102 10.9541 25.0762C12.0393 25.2478 13.4719 25.25 15.5 25.25C15.9142 25.25 16.25 25.5858 16.25 26C16.25 26.4142 15.9142 26.75 15.5 26.75H15.4346C13.4868 26.75 11.9355 26.7499 10.7197 26.5576C9.45479 26.3575 8.45079 25.9354 7.67383 25.0215C6.91178 24.125 6.57299 22.9962 6.41016 21.5713C6.24973 20.1672 6.24999 18.3646 6.25 16.0498V15.9502C6.24999 13.6354 6.24973 11.8328 6.41016 10.4287C6.57299 9.00383 6.91178 7.87505 7.67383 6.97852C8.45079 6.06464 9.45479 5.64246 10.7197 5.44238C11.9355 5.25012 13.4868 5.24998 15.4346 5.25H15.5654ZM21.625 15.25C23.9032 15.25 25.75 17.0968 25.75 19.375C25.75 20.5477 25.2598 21.6062 24.4756 22.3564L24.9141 23.7354C25.0193 24.0667 25.108 24.3464 25.165 24.5693C25.2193 24.7812 25.2752 25.0464 25.2383 25.3115C25.1273 26.1074 24.4646 26.747 23.6279 26.75C23.3493 26.751 23.0903 26.6477 22.8984 26.5615C22.6939 26.4696 22.4408 26.3362 22.1445 26.1807L22.124 26.1699C21.8287 26.0149 21.767 25.9858 21.7139 25.9697C21.5741 25.9276 21.4259 25.9276 21.2861 25.9697C21.233 25.9858 21.1713 26.0149 20.876 26.1699L20.8555 26.1807C20.5592 26.3362 20.3061 26.4696 20.1016 26.5615C19.9097 26.6477 19.6507 26.751 19.3721 26.75C18.5354 26.747 17.8727 26.1074 17.7617 25.3115C17.7248 25.0464 17.7807 24.7812 17.835 24.5693C17.892 24.3464 17.9807 24.0667 18.0859 23.7354L18.5244 22.3564C17.7402 21.6062 17.25 20.5477 17.25 19.375C17.25 17.0968 19.0968 15.25 21.375 15.25H21.625ZM23.1699 23.2002C22.6924 23.3932 22.1708 23.5 21.625 23.5H21.375C20.8292 23.5 20.3076 23.3932 19.8301 23.2002L19.5225 24.167C19.4085 24.5258 19.3333 24.7649 19.2881 24.9414C19.2592 25.0541 19.2529 25.1071 19.251 25.1221C19.2678 25.2008 19.3177 25.2356 19.3545 25.2461C19.3764 25.2387 19.419 25.2231 19.4873 25.1924C19.6446 25.1217 19.856 25.0111 20.1787 24.8418C20.1943 24.8336 20.2103 24.8254 20.2256 24.8174C20.4493 24.6998 20.6451 24.597 20.8535 24.5342C21.2757 24.4069 21.7243 24.4069 22.1465 24.5342C22.3549 24.597 22.5507 24.6998 22.7744 24.8174C22.7897 24.8254 22.8057 24.8336 22.8213 24.8418C23.144 25.0111 23.3554 25.1217 23.5127 25.1924C23.581 25.2231 23.6236 25.2387 23.6455 25.2461C23.6823 25.2356 23.7322 25.2008 23.749 25.1221C23.7471 25.1071 23.7408 25.0541 23.7119 24.9414C23.6667 24.7649 23.5915 24.5258 23.4775 24.167L23.1699 23.2002ZM21.375 16.75C19.9253 16.75 18.75 17.9253 18.75 19.375C18.75 20.2474 19.1747 21.0205 19.832 21.499C20.265 21.8142 20.7973 22 21.375 22H21.625C22.2027 22 22.735 21.8142 23.168 21.499C23.8253 21.0205 24.25 20.2474 24.25 19.375C24.25 17.9253 23.0747 16.75 21.625 16.75H21.375ZM15 16.25C15.4142 16.25 15.75 16.5858 15.75 17C15.75 17.4142 15.4142 17.75 15 17.75H12C11.5858 17.75 11.25 17.4142 11.25 17C11.25 16.5858 11.5858 16.25 12 16.25H15ZM19 11.25C19.4142 11.25 19.75 11.5858 19.75 12C19.75 12.4142 19.4142 12.75 19 12.75H12C11.5858 12.75 11.25 12.4142 11.25 12C11.25 11.5858 11.5858 11.25 12 11.25H19Z" fill="#1B8354"/>
</svg>
