<svg width="48" height="48" viewBox="0 0 48 48" fill="none" xmlns="http://www.w3.org/2000/svg">
<path d="M0 24C0 10.7452 10.7452 0 24 0C37.2548 0 48 10.7452 48 24C48 37.2548 37.2548 48 24 48C10.7452 48 0 37.2548 0 24Z" fill="#F3FCF6"/>
<path fill-rule="evenodd" clip-rule="evenodd" d="M14.3322 14.6586C14.4605 14.4078 14.7184 14.25 15 14.25H20C20.2408 14.25 20.467 14.3656 20.608 14.5609L25.544 21.3953L32.4697 14.4697C32.7626 14.1768 33.2374 14.1768 33.5303 14.4697C33.8232 14.7626 33.8232 15.2374 33.5303 15.5303L26.4336 22.6271L33.608 32.5609C33.7729 32.7892 33.796 33.0907 33.6678 33.3414C33.5396 33.5922 33.2817 33.75 33 33.75H28C27.7592 33.75 27.533 33.6344 27.392 33.4391L22.456 26.6047L15.5303 33.5303C15.2374 33.8232 14.7626 33.8232 14.4697 33.5303C14.1768 33.2374 14.1768 32.7626 14.4697 32.4697L21.5664 25.3729L14.392 15.4391C14.2271 15.2108 14.204 14.9093 14.3322 14.6586ZM16.4668 15.75L28.3835 32.25H31.5332L19.6165 15.75H16.4668Z" fill="#067647"/>
</svg>
