<svg width="32" height="32" viewBox="0 0 32 32" fill="none" xmlns="http://www.w3.org/2000/svg">
<path d="M0 16C0 7.16344 7.16344 0 16 0C24.8366 0 32 7.16344 32 16C32 24.8366 24.8366 32 16 32C7.16344 32 0 24.8366 0 16Z" fill="#EFF8FF"/>
<path d="M16.0576 5.75C18.2479 5.74999 19.9683 5.75012 21.3115 5.93066C22.6882 6.11575 23.7805 6.50313 24.6387 7.36133C25.4969 8.21953 25.8842 9.31182 26.0693 10.6885C26.2499 12.0317 26.25 13.7521 26.25 15.9424V16.0576C26.25 18.2479 26.2499 19.9683 26.0693 21.3115C25.8842 22.6882 25.4969 23.7805 24.6387 24.6387C23.7805 25.4969 22.6882 25.8842 21.3115 26.0693C19.9683 26.2499 18.2479 26.25 16.0576 26.25H15.9424C13.7521 26.25 12.0317 26.2499 10.6885 26.0693C9.31182 25.8842 8.21953 25.4969 7.36133 24.6387C6.50313 23.7805 6.11575 22.6882 5.93066 21.3115C5.75012 19.9683 5.74999 18.2479 5.75 16.0576V15.9424C5.74999 13.7521 5.75012 12.0317 5.93066 10.6885C6.11575 9.31182 6.50313 8.21953 7.36133 7.36133C8.21953 6.50313 9.31182 6.11575 10.6885 5.93066C12.0317 5.75012 13.7521 5.74999 15.9424 5.75H16.0576ZM7.26172 13.75C7.25316 14.4215 7.25 15.1673 7.25 16C7.25 18.2604 7.25137 19.8804 7.41699 21.1123C7.57972 22.3225 7.88885 23.0451 8.42188 23.5781C8.9549 24.1111 9.67747 24.4203 10.8877 24.583C12.1196 24.7486 13.7396 24.75 16 24.75C18.2604 24.75 19.8804 24.7486 21.1123 24.583C22.3225 24.4203 23.0451 24.1111 23.5781 23.5781C24.1111 23.0451 24.4203 22.3225 24.583 21.1123C24.7486 19.8804 24.75 18.2604 24.75 16C24.75 15.1673 24.7468 14.4215 24.7383 13.75H7.26172ZM16 7.25C13.7396 7.25 12.1196 7.25137 10.8877 7.41699C9.67747 7.57972 8.9549 7.88885 8.42188 8.42188C7.88885 8.9549 7.57972 9.67747 7.41699 10.8877C7.3621 11.296 7.3275 11.7472 7.30273 12.25H24.6973C24.6725 11.7472 24.6379 11.296 24.583 10.8877C24.4203 9.67747 24.1111 8.9549 23.5781 8.42188C23.0451 7.88885 22.3225 7.57972 21.1123 7.41699C19.8804 7.25137 18.2604 7.25 16 7.25ZM11.0088 9C11.5611 9 12.0088 9.44772 12.0088 10C12.0088 10.5523 11.5611 11 11.0088 11H11C10.4477 11 10 10.5523 10 10C10 9.44772 10.4477 9 11 9H11.0088ZM15.0088 9C15.5611 9 16.0088 9.44772 16.0088 10C16.0088 10.5523 15.5611 11 15.0088 11H15C14.4477 11 14 10.5523 14 10C14 9.44772 14.4477 9 15 9H15.0088Z" fill="#1B8354"/>
</svg>
