<svg width="32" height="32" viewBox="0 0 32 32" fill="none" xmlns="http://www.w3.org/2000/svg">
<path d="M0 16C0 7.16344 7.16344 0 16 0C24.8366 0 32 7.16344 32 16C32 24.8366 24.8366 32 16 32C7.16344 32 0 24.8366 0 16Z" fill="#EFF8FF"/>
<path d="M16.1299 25.2441C16.5438 25.2299 16.8909 25.5539 16.9053 25.9678C16.9196 26.3817 16.5956 26.7289 16.1816 26.7432C15.9335 26.7517 15.6837 26.7517 15.4355 26.7432C15.0216 26.7288 14.6976 26.3817 14.7119 25.9678C14.7263 25.554 15.0735 25.2299 15.4873 25.2441C15.701 25.2515 15.9162 25.2515 16.1299 25.2441ZM19.5332 24.4512C19.9106 24.2807 20.3548 24.4488 20.5254 24.8262C20.6959 25.2037 20.5279 25.6479 20.1504 25.8184C19.948 25.9098 19.7422 25.9954 19.5332 26.0742C19.1457 26.2202 18.7135 26.0242 18.5674 25.6367C18.4213 25.2493 18.6166 24.8172 19.0039 24.6709C19.183 24.6034 19.3597 24.5296 19.5332 24.4512ZM11.1035 24.833C11.2735 24.4554 11.7171 24.2864 12.0947 24.4561C12.2616 24.5312 12.4315 24.6019 12.6035 24.667C12.9909 24.8136 13.1866 25.2464 13.04 25.6338C12.8935 26.0212 12.4597 26.2159 12.0723 26.0693C11.8717 25.9934 11.674 25.9118 11.4795 25.8242C11.1019 25.6543 10.9337 25.2107 11.1035 24.833ZM22.4473 22.3555C22.7292 22.0523 23.2035 22.0346 23.5068 22.3164C23.8103 22.5983 23.8278 23.0735 23.5459 23.377C23.374 23.562 23.1954 23.7408 23.0107 23.9131C22.7079 24.1957 22.2328 24.1788 21.9502 23.876C21.6678 23.5731 21.6845 23.0989 21.9873 22.8164C22.146 22.6684 22.2996 22.5144 22.4473 22.3555ZM8.1582 22.375C8.4595 22.0911 8.93363 22.1051 9.21777 22.4062C9.34398 22.54 9.47433 22.67 9.6084 22.7959C9.91032 23.0794 9.92606 23.5545 9.64258 23.8564C9.35906 24.1584 8.88398 24.1731 8.58203 23.8896C8.42582 23.743 8.274 23.5914 8.12695 23.4355C7.84272 23.1342 7.8569 22.6592 8.1582 22.375ZM24.2979 19.3623C24.4429 18.9743 24.8747 18.7769 25.2627 18.9219C25.6505 19.0669 25.847 19.4988 25.7021 19.8867C25.6097 20.1342 25.5085 20.378 25.3984 20.6162C25.2246 20.9918 24.7791 21.1558 24.4033 20.9824C24.0273 20.8087 23.8634 20.3623 24.0371 19.9863C24.1314 19.7823 24.2187 19.5742 24.2979 19.3623ZM6.36719 18.9629C6.75436 18.8164 7.18717 19.0114 7.33398 19.3984C7.40309 19.5809 7.47824 19.7609 7.55859 19.9375C7.73005 20.3144 7.56329 20.759 7.18652 20.9307C6.80949 21.1022 6.36487 20.9356 6.19336 20.5586C6.09962 20.3525 6.01228 20.1426 5.93164 19.9297C5.78511 19.5424 5.9799 19.1096 6.36719 18.9629ZM16 9.25C16.4142 9.25005 16.75 9.58582 16.75 10V13.8779C17.3893 14.1039 17.8961 14.6107 18.1221 15.25H20C20.4142 15.2501 20.75 15.5858 20.75 16C20.75 16.4142 20.4142 16.7499 20 16.75H18.1221C17.8132 17.6239 16.9796 18.25 16 18.25C14.7574 18.25 13.75 17.2426 13.75 16C13.75 15.0203 14.3761 14.1868 15.25 13.8779V10C15.25 9.58579 15.5858 9.25 16 9.25ZM6.02832 15.1299C6.44214 15.1428 6.76754 15.4885 6.75488 15.9023C6.74889 16.0953 6.74888 16.2899 6.75488 16.4824C6.76753 16.8962 6.44215 17.2419 6.02832 17.2549C5.61431 17.2678 5.2678 16.9423 5.25488 16.5283C5.24792 16.3048 5.24794 16.0801 5.25488 15.8564C5.26775 15.4424 5.61431 15.117 6.02832 15.1299ZM16 15.25C15.5858 15.25 15.25 15.5858 15.25 16C15.25 16.4142 15.5858 16.75 16 16.75C16.4142 16.7499 16.75 16.4142 16.75 16C16.75 15.5858 16.4142 15.2501 16 15.25ZM16 5.25C21.937 5.25005 26.75 10.063 26.75 16C26.75 16.4142 26.4142 16.7499 26 16.75C25.5858 16.75 25.25 16.4142 25.25 16C25.25 10.8914 21.1086 6.75005 16 6.75C15.5858 6.75 15.25 6.41421 15.25 6C15.25 5.58579 15.5858 5.25 16 5.25ZM6.18066 11.8516C6.35109 11.474 6.79532 11.3061 7.17285 11.4766C7.55014 11.6471 7.71822 12.0913 7.54785 12.4688C7.46903 12.6434 7.395 12.8207 7.32715 13.001C7.18129 13.3886 6.74894 13.5852 6.36133 13.4395C5.97365 13.2936 5.77794 12.8603 5.92383 12.4727C6.00299 12.2623 6.08873 12.0552 6.18066 11.8516ZM8.5918 8.4834C8.89405 8.20056 9.36827 8.21652 9.65137 8.51855C9.93446 8.82077 9.91924 9.29492 9.61719 9.57812C9.47479 9.71152 9.33668 9.84994 9.20312 9.99219C8.91967 10.2941 8.44458 10.3097 8.14258 10.0264C7.84058 9.74287 7.82588 9.26782 8.10938 8.96582C8.26497 8.80008 8.42588 8.63881 8.5918 8.4834ZM12.1133 6.29785C12.5012 6.15288 12.9331 6.34941 13.0781 6.7373C13.2231 7.12531 13.0257 7.55716 12.6377 7.70215C12.4404 7.77589 12.2462 7.8565 12.0557 7.94336C11.6788 8.1151 11.2343 7.94915 11.0625 7.57227C10.8907 7.19545 11.0569 6.75099 11.4336 6.5791C11.656 6.47772 11.8829 6.38394 12.1133 6.29785Z" fill="#1B8354"/>
</svg>
