<svg width="48" height="48" viewBox="0 0 48 48" fill="none" xmlns="http://www.w3.org/2000/svg">
<path d="M0 24C0 10.7452 10.7452 0 24 0C37.2548 0 48 10.7452 48 24C48 37.2548 37.2548 48 24 48C10.7452 48 0 37.2548 0 24Z" fill="#F3FCF6"/>
<path fill-rule="evenodd" clip-rule="evenodd" d="M13.25 16.25C13.25 14.5931 14.5931 13.25 16.25 13.25C17.9069 13.25 19.25 14.5931 19.25 16.25C19.25 17.9069 17.9069 19.25 16.25 19.25C14.5931 19.25 13.25 17.9069 13.25 16.25ZM16.25 14.75C15.4216 14.75 14.75 15.4216 14.75 16.25C14.75 17.0784 15.4216 17.75 16.25 17.75C17.0784 17.75 17.75 17.0784 17.75 16.25C17.75 15.4216 17.0784 14.75 16.25 14.75Z" fill="#067647"/>
<path fill-rule="evenodd" clip-rule="evenodd" d="M15.9553 20.75H16.5448C16.9776 20.75 17.3744 20.7499 17.6972 20.7933C18.0527 20.8411 18.4284 20.9535 18.7374 21.2626C19.0465 21.5716 19.1589 21.9473 19.2067 22.3028C19.2501 22.6256 19.2501 23.0224 19.25 23.4553V32.0448C19.2501 32.4776 19.2501 32.8744 19.2067 33.1972C19.1589 33.5527 19.0465 33.9284 18.7374 34.2374C18.4284 34.5465 18.0527 34.6589 17.6972 34.7067C17.3744 34.7501 16.9776 34.7501 16.5448 34.75H15.9553C15.5224 34.7501 15.1256 34.7501 14.8028 34.7067C14.4473 34.6589 14.0716 34.5465 13.7626 34.2374C13.4535 33.9284 13.3411 33.5527 13.2933 33.1972C13.2499 32.8744 13.25 32.4776 13.25 32.0448L13.25 23.4553C13.25 23.0224 13.2499 22.6256 13.2933 22.3028C13.3411 21.9473 13.4535 21.5716 13.7626 21.2626C14.0716 20.9535 14.4473 20.8411 14.8028 20.7933C15.1256 20.7499 15.5224 20.75 15.9553 20.75ZM14.8232 22.3232L14.8257 22.3219C14.8276 22.3209 14.8309 22.3192 14.836 22.3172C14.8578 22.3082 14.9061 22.2929 15.0027 22.2799C15.2134 22.2516 15.5074 22.25 16 22.25H16.5C16.9926 22.25 17.2866 22.2516 17.4973 22.2799C17.5939 22.2929 17.6423 22.3082 17.664 22.3172C17.6691 22.3192 17.6724 22.3209 17.6743 22.3219L17.6768 22.3232L17.6781 22.3257C17.6792 22.3276 17.6808 22.3309 17.6828 22.336C17.6918 22.3578 17.7071 22.4061 17.7201 22.5027C17.7484 22.7134 17.75 23.0074 17.75 23.5V32C17.75 32.4926 17.7484 32.7866 17.7201 32.9973C17.7071 33.0939 17.6918 33.1423 17.6828 33.164C17.6808 33.1691 17.6792 33.1724 17.6781 33.1743L17.6768 33.1768L17.6743 33.1781C17.6724 33.1792 17.6691 33.1808 17.664 33.1828C17.6423 33.1918 17.5939 33.2071 17.4973 33.2201C17.2866 33.2484 16.9926 33.25 16.5 33.25H16C15.5074 33.25 15.2134 33.2484 15.0027 33.2201C14.9061 33.2071 14.8578 33.1918 14.836 33.1828C14.8309 33.1808 14.8276 33.1792 14.8257 33.1781L14.8232 33.1768L14.8219 33.1743C14.8209 33.1724 14.8192 33.1691 14.8172 33.164C14.8082 33.1423 14.7929 33.0939 14.7799 32.9973C14.7516 32.7866 14.75 32.4926 14.75 32L14.75 23.5C14.75 23.0074 14.7516 22.7134 14.7799 22.5027C14.7929 22.4061 14.8082 22.3578 14.8172 22.336C14.8192 22.3309 14.8209 22.3276 14.8219 22.3257L14.8232 22.3232Z" fill="#067647"/>
<path fill-rule="evenodd" clip-rule="evenodd" d="M23.4553 20.75C23.7448 20.75 24.9111 20.75 25.1325 20.7702C25.3719 20.7922 25.6326 20.8426 25.8837 20.9895C26.143 21.1412 26.3588 21.357 26.5105 21.6163L26.5225 21.6371C27.3122 21.0795 28.2655 20.7502 29.2968 20.7502C31.992 20.7502 34.7501 23.0445 34.7501 26.0002L34.7487 31.5455C34.7487 31.9783 34.7486 32.375 34.7052 32.6977C34.6573 33.0532 34.5448 33.4288 34.2358 33.7377C33.9268 34.0466 33.5511 34.1591 33.1957 34.2068C32.8729 34.2502 32.4762 34.2502 32.0435 34.2501H31.4552C31.0224 34.2502 30.6255 34.2502 30.3028 34.2068C29.9473 34.159 29.5716 34.0466 29.2625 33.7376C28.9535 33.4285 28.8411 33.0528 28.7933 32.6973C28.7499 32.3745 28.7499 31.9777 28.75 31.5449L28.75 27.0001C28.75 26.5426 28.4115 26.2501 28.0879 26.2501C27.5706 26.2501 27.2926 26.4485 27.1015 26.7658C26.8769 27.1388 26.7501 27.7288 26.7501 28.5001L26.75 32.0448C26.7501 32.4776 26.7501 32.8744 26.7067 33.1972C26.6589 33.5527 26.5465 33.9284 26.2374 34.2374C25.9284 34.5465 25.5527 34.6589 25.1972 34.7067C24.8744 34.7501 24.4776 34.7501 24.0448 34.75H23.4552C23.0224 34.7501 22.6256 34.7501 22.3028 34.7067C21.9473 34.6589 21.5716 34.5465 21.2626 34.2374C20.9535 33.9284 20.8411 33.5527 20.7933 33.1972C20.7499 32.8744 20.75 32.4776 20.75 32.0448V23.4553C20.75 23.0224 20.7499 22.6256 20.7933 22.3028C20.8411 21.9473 20.9535 21.5716 21.2626 21.2626C21.5716 20.9535 21.9473 20.8411 22.3028 20.7933C22.6256 20.7499 23.0224 20.75 23.4553 20.75ZM23.5 22.25C23.0074 22.25 22.7134 22.2516 22.5027 22.2799C22.435 22.2773 22.2957 22.3182 22.2799 22.5027C22.2516 22.7134 22.25 23.0074 22.25 23.5L22.25 32C22.25 32.4926 22.2516 32.7866 22.2799 32.9973C22.292 33.1193 22.4334 33.1966 22.5027 33.2201C22.7134 33.2484 23.0074 33.25 23.5 33.25H24C24.4926 33.25 24.7866 33.2484 24.9973 33.2201C25.0662 33.2027 25.207 33.1338 25.2201 32.9973C25.2484 32.7866 25.25 32.4926 25.25 32L25.2501 28.5001C25.2501 27.6146 25.3873 26.7046 25.8166 25.9918C26.2794 25.2234 27.0454 24.7501 28.0879 24.7501C29.324 24.7501 30.25 25.8008 30.25 27.0001V31.5001C30.25 31.9927 30.2516 32.2867 30.2799 32.4975C30.2799 32.6555 30.3754 32.682 30.45 32.7027C30.4697 32.7081 30.488 32.7132 30.5026 32.7202C30.7133 32.7485 31.0074 32.7501 31.5 32.7501L31.9987 32.7501C32.4912 32.7501 32.7852 32.7485 32.9958 32.7202C33.0652 32.6945 33.2069 32.6139 33.2186 32.4975C33.2469 32.2869 33.2486 31.9929 33.2487 31.5004L33.2501 26.0001C33.2499 23.9854 31.2807 22.2502 29.2968 22.2502C28.2192 22.2502 27.2443 22.7771 26.597 23.628C26.4021 23.8842 26.0655 23.9875 25.7605 23.8847C25.4555 23.7818 25.2501 23.4959 25.2501 23.174C25.25 22.845 25.2493 22.649 25.2361 22.5044C25.2278 22.3531 25.0724 22.2811 24.9956 22.264C24.851 22.2507 24.655 22.25 24.326 22.25L23.5 22.25Z" fill="#067647"/>
</svg>
