<svg width="32" height="32" viewBox="0 0 32 32" fill="none" xmlns="http://www.w3.org/2000/svg">
<path d="M0 16C0 7.16344 7.16344 0 16 0C24.8366 0 32 7.16344 32 16C32 24.8366 24.8366 32 16 32C7.16344 32 0 24.8366 0 16Z" fill="#EFF8FF"/>
<path d="M15.5566 5.25C17.3943 5.24998 18.8501 5.25017 19.9893 5.40332C21.1615 5.56097 22.1101 5.89331 22.8584 6.6416C23.6067 7.38991 23.939 8.33845 24.0967 9.51074C24.2498 10.6499 24.25 12.1057 24.25 13.9434V15C24.25 15.4142 23.9142 15.75 23.5 15.75C23.0858 15.75 22.75 15.4142 22.75 15V14C22.75 12.0932 22.7485 10.7386 22.6104 9.71094C22.4751 8.70487 22.221 8.12536 21.7979 7.70215C21.3746 7.27894 20.7952 7.02491 19.7891 6.88965C18.7614 6.75149 17.4068 6.75 15.5 6.75H14.5C12.5932 6.75 11.2386 6.75149 10.2109 6.88965C9.20486 7.02491 8.62536 7.27894 8.20215 7.70215C7.77897 8.12535 7.52492 8.70489 7.38965 9.71094C7.25149 10.7386 7.25002 12.0933 7.25 14V18C7.24998 19.9068 7.2515 21.2614 7.38965 22.2891C7.5249 23.2951 7.77895 23.8746 8.20215 24.2979C8.62535 24.721 9.20489 24.9751 10.2109 25.1104C11.2386 25.2485 12.5933 25.25 14.5 25.25C14.9142 25.25 15.25 25.5858 15.25 26C15.25 26.4142 14.9142 26.75 14.5 26.75H14.4443C12.6063 26.75 11.1501 26.7499 10.0107 26.5967C8.83843 26.439 7.88991 26.1067 7.1416 25.3584C6.39333 24.6101 6.06095 23.6615 5.90332 22.4893C5.75018 21.3501 5.74997 19.8943 5.75 18.0566V13.9434C5.75 12.1057 5.75015 10.6499 5.90332 9.51074C6.06096 8.33845 6.39332 7.38991 7.1416 6.6416C7.88989 5.89332 8.83848 5.56096 10.0107 5.40332C11.1499 5.25017 12.6057 5.24998 14.4434 5.25H15.5566ZM22.6348 17.4316C23.1245 17.1891 23.6997 17.1891 24.1895 17.4316C24.4516 17.5615 24.6747 17.786 24.8877 18L25 18.1123C25.2141 18.3253 25.4384 18.5484 25.5684 18.8105C25.811 19.3004 25.8109 19.8754 25.5684 20.3652C25.4384 20.6274 25.2141 20.8505 25 21.0635C24.9812 21.0822 24.963 21.1015 24.9443 21.1201L20.1201 25.9434C20.1014 25.9621 20.0824 25.9819 20.0635 26.001C19.8336 26.2321 19.5855 26.4809 19.2588 26.6162C18.9319 26.7516 18.5801 26.7509 18.2539 26.75H17C16.5859 26.7498 16.25 26.4141 16.25 26V24.7471C16.2491 24.421 16.2485 24.069 16.3838 23.7422C16.5192 23.4152 16.7687 23.1665 17 22.9365L21.9365 18C22.1495 17.786 22.3726 17.5615 22.6348 17.4316ZM23.5215 18.7744C23.4525 18.7412 23.3717 18.7412 23.3027 18.7744C23.2976 18.7778 23.2775 18.7925 23.2354 18.8301C23.1683 18.89 23.0836 18.975 22.9414 19.1172L18.1172 23.9404C17.9647 24.0929 17.8794 24.1792 17.8203 24.248C17.7942 24.2785 17.7817 24.297 17.7754 24.3066C17.7726 24.3109 17.7711 24.3133 17.7705 24.3145L17.7695 24.3154L17.7686 24.3174C17.7682 24.3186 17.7676 24.3214 17.7666 24.3262C17.7642 24.3375 17.7609 24.3601 17.7578 24.4004C17.751 24.4908 17.75 24.6117 17.75 24.8271V25.25H18.1738C18.3894 25.25 18.5102 25.2491 18.6006 25.2422C18.6405 25.2391 18.6625 25.2358 18.6738 25.2334C18.6792 25.2323 18.6825 25.2318 18.6836 25.2314L18.6846 25.2305H18.6865C18.6876 25.2299 18.6901 25.2283 18.6943 25.2256C18.704 25.2192 18.7223 25.206 18.7529 25.1797C18.8217 25.1206 18.9071 25.0353 19.0596 24.8828L23.8828 20.0596C24.0253 19.9171 24.1109 19.8318 24.1709 19.7646C24.2082 19.7229 24.2221 19.7026 24.2256 19.6973C24.2587 19.6285 24.2585 19.5483 24.2256 19.4795C24.2222 19.4744 24.2082 19.4539 24.1709 19.4121C24.111 19.345 24.0261 19.2595 23.8838 19.1172C23.7415 18.9749 23.656 18.89 23.5889 18.8301C23.5467 18.7925 23.5266 18.7778 23.5215 18.7744ZM19 15.25C19.4142 15.25 19.75 15.5858 19.75 16C19.75 16.4142 19.4142 16.75 19 16.75H11C10.5858 16.75 10.25 16.4142 10.25 16C10.25 15.5858 10.5858 15.25 11 15.25H19ZM19 10.25C19.4142 10.25 19.75 10.5858 19.75 11C19.75 11.4142 19.4142 11.75 19 11.75H11C10.5858 11.75 10.25 11.4142 10.25 11C10.25 10.5858 10.5858 10.25 11 10.25H19Z" fill="#1B8354"/>
</svg>
