<svg width="48" height="48" viewBox="0 0 48 48" fill="none" xmlns="http://www.w3.org/2000/svg">
<path d="M0 24C0 10.7452 10.7452 0 24 0C37.2548 0 48 10.7452 48 24C48 37.2548 37.2548 48 24 48C10.7452 48 0 37.2548 0 24Z" fill="#F3FCF6"/>
<path fill-rule="evenodd" clip-rule="evenodd" d="M19.7955 19.5556C19.7955 16.0302 22.8211 13.25 26.4545 13.25L29.8182 13.25C30.0778 13.25 30.3347 13.2618 30.567 13.3098C30.8054 13.3591 31.0681 13.4563 31.2895 13.6644C31.7253 14.0741 31.75 14.6781 31.75 15.1111V17.3333C31.75 17.7663 31.7253 18.3703 31.2895 18.78C31.0681 18.9882 30.8054 19.0854 30.567 19.1346C30.3347 19.1826 30.0778 19.1944 29.8182 19.1944H26.4545C26.1718 19.1944 26.0227 19.399 26.0227 19.5556V21.5833L28.4332 21.5833C28.7659 21.5833 29.0836 21.5998 29.3588 21.6611C29.6337 21.7223 29.9585 21.8485 30.1936 22.1415C30.4349 22.4423 30.481 22.7918 30.467 23.0803C30.4533 23.3614 30.3793 23.6647 30.2872 23.9678L29.7807 25.6344C29.6765 25.9773 29.5206 26.4057 29.1304 26.6824C28.7516 26.9511 28.2955 26.9722 27.9267 26.9722L26.0227 26.9722L26.0227 32.8889C26.0227 33.3219 25.998 33.9259 25.5622 34.3356C25.3408 34.5437 25.0782 34.6409 24.8398 34.6902C24.6074 34.7382 24.3505 34.75 24.0909 34.75H21.7273C21.4677 34.75 21.2108 34.7382 20.9784 34.6902C20.74 34.6409 20.4773 34.5437 20.256 34.3356C19.8202 33.9259 19.7955 33.3219 19.7955 32.8889V26.9722H18.1818C17.9222 26.9722 17.6653 26.9604 17.433 26.9124C17.1946 26.8631 16.9319 26.7659 16.7105 26.5578C16.2747 26.1481 16.25 25.5441 16.25 25.1111V23.4444C16.25 23.0115 16.2747 22.4075 16.7105 21.9977C16.9319 21.7896 17.1946 21.6924 17.433 21.6432C17.6653 21.5952 17.9222 21.5833 18.1818 21.5833H19.7955L19.7955 19.5556ZM26.4545 14.75C23.561 14.75 21.2955 16.9444 21.2955 19.5556L21.2955 22.3333C21.2955 22.7475 20.9597 23.0833 20.5455 23.0833H18.1818C17.9799 23.0833 17.8509 23.0927 17.7677 23.1064C17.7576 23.1752 17.75 23.2814 17.75 23.4444V25.1111C17.75 25.2742 17.7576 25.3804 17.7677 25.4492C17.8509 25.4628 17.9799 25.4722 18.1818 25.4722H20.5455C20.9597 25.4722 21.2955 25.808 21.2955 26.2222V32.8889C21.2955 33.052 21.3031 33.1581 21.3132 33.2269C21.3964 33.2406 21.5254 33.25 21.7273 33.25H24.0909C24.2928 33.25 24.4218 33.2406 24.505 33.2269C24.5151 33.1581 24.5227 33.052 24.5227 32.8889L24.5227 26.2222C24.5227 25.808 24.8585 25.4722 25.2727 25.4722L27.9267 25.4722C28.0962 25.4722 28.1937 25.4639 28.2521 25.4531C28.274 25.4093 28.3046 25.333 28.3455 25.1983L28.852 23.5316C28.9094 23.3427 28.9413 23.2073 28.9569 23.1114C28.8427 23.0943 28.6755 23.0833 28.4332 23.0833L25.2727 23.0833C24.8585 23.0833 24.5227 22.7475 24.5227 22.3333V19.5556C24.5227 18.4848 25.4319 17.6944 26.4545 17.6944H29.8182C30.0201 17.6944 30.1491 17.685 30.2323 17.6714C30.2424 17.6026 30.25 17.4964 30.25 17.3333V15.1111C30.25 14.948 30.2424 14.8419 30.2323 14.7731C30.1491 14.7594 30.0201 14.75 29.8182 14.75L26.4545 14.75Z" fill="#067647"/>
</svg>
