<svg width="32" height="32" viewBox="0 0 32 32" fill="none" xmlns="http://www.w3.org/2000/svg">
<path d="M0 16C0 7.16344 7.16344 0 16 0C24.8366 0 32 7.16344 32 16C32 24.8366 24.8366 32 16 32C7.16344 32 0 24.8366 0 16Z" fill="#EFF8FF"/>
<path d="M16.2998 18.7324C16.4477 18.3457 16.8807 18.1521 17.2676 18.2998C17.6544 18.4476 17.8487 18.8807 17.7012 19.2676C17.0623 20.9402 16.0902 21.8631 14.9102 22.3242C13.8179 22.751 12.6078 22.7502 11.5654 22.75C11.5437 22.75 11.5216 22.75 11.5 22.75C10.3799 22.75 9.44081 22.76 8.63672 23.0742C7.89756 23.3631 7.20814 23.9404 6.70117 25.2676C6.55338 25.6545 6.11937 25.849 5.73242 25.7012C5.3455 25.5534 5.15202 25.1194 5.2998 24.7324C5.93866 23.0599 6.91082 22.1379 8.09082 21.6768C9.18309 21.25 10.3932 21.2498 11.4355 21.25C11.4571 21.25 11.4786 21.25 11.5 21.25C12.6202 21.25 13.5601 21.241 14.3643 20.9268C15.1034 20.6379 15.7929 20.0596 16.2998 18.7324ZM11.5 13.25C13.2949 13.25 14.75 14.7051 14.75 16.5C14.75 18.2949 13.2949 19.75 11.5 19.75C9.70507 19.75 8.25 18.2949 8.25 16.5C8.25 14.7051 9.70507 13.25 11.5 13.25ZM21.0547 6.25C22.1875 6.24998 23.1139 6.25037 23.8447 6.34863C24.6085 6.45136 25.2712 6.67354 25.7998 7.20215C26.3283 7.73079 26.5506 8.39343 26.6533 9.15723C26.7515 9.88803 26.751 10.8137 26.751 11.9463V14.0537C26.751 15.1863 26.7515 16.112 26.6533 16.8428C26.5506 17.6066 26.3283 18.2692 25.7998 18.7979C25.2712 19.3265 24.6085 19.5486 23.8447 19.6514C23.1139 19.7496 22.1875 19.75 21.0547 19.75H19.5C19.0858 19.75 18.75 19.4142 18.75 19C18.75 18.5858 19.0858 18.25 19.5 18.25H21.001C22.2007 18.25 23.0253 18.2483 23.6445 18.165C24.242 18.0847 24.5347 17.9408 24.7383 17.7373C24.9418 17.5338 25.0857 17.2409 25.166 16.6436C25.2493 16.0244 25.251 15.1997 25.251 14V12C25.251 10.8003 25.2493 9.97564 25.166 9.35645C25.0857 8.75907 24.9418 8.46619 24.7383 8.2627C24.5347 8.05924 24.242 7.91529 23.6445 7.83496C23.0253 7.75171 22.2007 7.75 21.001 7.75H17.001C15.8016 7.75 14.9775 7.75176 14.3584 7.83496C13.7608 7.91531 13.4672 8.05916 13.2637 8.2627C13.0895 8.43689 12.9619 8.6742 12.8779 9.10254C12.7898 9.55227 12.7612 10.151 12.7539 11.0068C12.7501 11.4208 12.4111 11.7535 11.9971 11.75C11.5831 11.7462 11.2504 11.4072 11.2539 10.9932C11.2611 10.1427 11.2873 9.41675 11.4053 8.81445C11.5274 8.19124 11.7571 7.64822 12.2031 7.20215C12.7318 6.67346 13.3943 6.45135 14.1582 6.34863C14.889 6.25038 15.8146 6.24998 16.9473 6.25H21.0547ZM11.5 14.75C10.5335 14.75 9.75 15.5335 9.75 16.5C9.75 17.4665 10.5335 18.25 11.5 18.25C12.4665 18.25 13.25 17.4665 13.25 16.5C13.25 15.5335 12.4665 14.75 11.5 14.75ZM22 14.25C22.4142 14.25 22.75 14.5858 22.75 15C22.75 15.4142 22.4142 15.75 22 15.75H19C18.5858 15.75 18.25 15.4142 18.25 15C18.25 14.5858 18.5858 14.25 19 14.25H22ZM22 10.25C22.4142 10.25 22.75 10.5858 22.75 11C22.75 11.4142 22.4142 11.75 22 11.75H16C15.5858 11.75 15.25 11.4142 15.25 11C15.25 10.5858 15.5858 10.25 16 10.25H22Z" fill="#1B8354"/>
</svg>
