<svg width="56" height="56" viewBox="0 0 56 56" fill="none" xmlns="http://www.w3.org/2000/svg">
<path d="M0 28C0 12.536 12.536 0 28 0C43.464 0 56 12.536 56 28C56 43.464 43.464 56 28 56C12.536 56 0 43.464 0 28Z" fill="#F3FCF6"/>
<path d="M18.8154 32.0244C22.299 30.1576 26.7019 30.1576 30.1855 32.0244C30.2941 32.0826 30.4301 32.1509 30.585 32.2295C31.2761 32.5802 32.3482 33.1242 33.083 33.7715C33.536 34.1705 34.0215 34.7411 34.1113 35.4805C34.2094 36.2897 33.807 37.0018 33.127 37.585C31.9662 38.5802 30.5759 39.374 28.7871 39.374H20.2139C18.4251 39.374 17.0347 38.5802 15.874 37.585C15.1939 37.0018 14.7915 36.2898 14.8896 35.4805C14.9794 34.7411 15.465 34.1705 15.918 33.7715C16.6528 33.1242 17.7249 32.5801 18.416 32.2295C18.5709 32.1509 18.7069 32.0826 18.8154 32.0244ZM34.417 30.624C35.0317 30.6241 35.8514 30.7888 36.6611 31.04C37.4842 31.2954 38.3737 31.6642 39.1318 32.1182C39.857 32.5524 40.6038 33.1476 40.9414 33.916C41.1224 34.328 41.1877 34.7973 41.0557 35.2842C40.9268 35.7593 40.6323 36.1697 40.2402 36.5195C39.1974 37.4498 37.9305 38.207 36.291 38.207H35.7188C35.2356 38.2069 34.8438 37.8152 34.8438 37.332C34.8439 36.849 35.2357 36.4571 35.7188 36.457H36.291C37.3343 36.457 38.202 35.9928 39.0752 35.2139C39.2915 35.0209 39.3498 34.8867 39.3662 34.8262C39.3794 34.7776 39.3824 34.7192 39.3389 34.6201C39.2273 34.3661 38.8774 34.0053 38.2324 33.6191C37.6203 33.2527 36.8654 32.9362 36.1426 32.7119C35.4066 32.4836 34.7789 32.3741 34.417 32.374C33.9337 32.374 33.542 31.9823 33.542 31.499C33.542 31.0158 33.9337 30.624 34.417 30.624ZM29.3584 33.5664C26.3912 31.9765 22.6087 31.9763 19.6416 33.5664C19.4727 33.6569 19.2898 33.7505 19.0996 33.8477C18.4086 34.2007 17.6227 34.6027 17.0752 35.085C16.7292 35.3897 16.6386 35.5958 16.627 35.6914V35.6924C16.6232 35.7224 16.6016 35.9043 17.0127 36.2568C17.9979 37.1016 18.9978 37.624 20.2139 37.624H28.7871C30.0031 37.624 31.0031 37.1016 31.9883 36.2568C32.3991 35.9046 32.3778 35.7225 32.374 35.6924V35.6914C32.3624 35.5958 32.2717 35.3897 31.9258 35.085C31.3783 34.6026 30.5925 34.2007 29.9014 33.8477C29.7111 33.7504 29.5274 33.6569 29.3584 33.5664ZM24.5 17.207C27.5606 17.207 30.042 19.6884 30.042 22.749C30.042 25.8096 27.5606 28.291 24.5 28.291C21.4396 28.2908 18.959 25.8095 18.959 22.749C18.959 19.6886 21.4396 17.2072 24.5 17.207ZM32.9053 18.957C35.4325 18.957 37.6248 20.8405 37.625 23.332C37.625 25.8238 35.4326 27.707 32.9053 27.707C32.5659 27.707 32.2338 27.674 31.9131 27.6104C31.4392 27.5163 31.1316 27.056 31.2256 26.582C31.3196 26.108 31.7799 25.7995 32.2539 25.8936C32.4627 25.935 32.6806 25.957 32.9053 25.957C34.6244 25.957 35.875 24.7063 35.875 23.332C35.8748 21.9579 34.6242 20.707 32.9053 20.707C32.6806 20.7071 32.4627 20.7291 32.2539 20.7705C31.78 20.8645 31.3197 20.5569 31.2256 20.083C31.1316 19.6091 31.4392 19.1488 31.9131 19.0547C32.2338 18.9911 32.5659 18.9571 32.9053 18.957ZM24.5 18.957C22.4061 18.9572 20.709 20.6551 20.709 22.749C20.709 24.843 22.4061 26.5408 24.5 26.541C26.5941 26.541 28.292 24.8431 28.292 22.749C28.292 20.6549 26.5941 18.957 24.5 18.957Z" fill="#067647"/>
</svg>
