<svg width="35" height="35" viewBox="0 0 35 35" fill="none" xmlns="http://www.w3.org/2000/svg">
<path d="M1.5 10C2.32 10 3 10.68 3 11.5V33.5C3 34.32 2.32 35 1.5 35C0.68 35 0 34.32 0 33.5V11.5C0 10.68 0.68 10 1.5 10ZM9.5 0C10.32 0 11 0.68 11 1.5V33.5C11 34.32 10.32 35 9.5 35C8.68 35 8 34.32 8 33.5V1.5C8 0.68 8.68 0 9.5 0ZM17.5 14C18.32 14 19 14.68 19 15.5V33.5C19 34.32 18.32 35 17.5 35C16.68 35 16 34.32 16 33.5V15.5C16 14.68 16.68 14 17.5 14ZM25.5 6C26.32 6 27 6.68 27 7.5V33.5C27 34.32 26.32 35 25.5 35C24.68 35 24 34.32 24 33.5V7.5C24 6.68 24.68 6 25.5 6ZM33.5 20C34.32 20 35 20.68 35 21.5V33.5C35 34.32 34.32 35 33.5 35C32.68 35 32 34.32 32 33.5V21.5C32 20.68 32.68 20 33.5 20Z" fill="white"/>
</svg>
