<svg width="39" height="39" viewBox="0 0 39 39" fill="none" xmlns="http://www.w3.org/2000/svg">
<path d="M9.5 0C10.3284 0 11 0.67158 11 1.5C11 2.32843 10.3284 3 9.5 3C5.91036 3.00004 3.00003 5.91034 3 9.5V21.5C2.99996 25.3135 3.00301 28.0228 3.2793 30.0781C3.5498 32.0903 4.05791 33.2493 4.9043 34.0957C5.75072 34.9421 6.90968 35.4502 8.92188 35.7207C10.9772 35.997 13.6865 36 17.5 36H23.5C25.3843 36 26.7226 35.9996 27.7754 35.9277C28.8145 35.8568 29.4655 35.721 29.9873 35.5049C31.58 34.8452 32.8452 33.58 33.5049 31.9873C33.721 31.4655 33.8568 30.8145 33.9277 29.7754C33.9996 28.7226 34 27.3843 34 25.5C34 24.6716 34.6716 24 35.5 24C36.3284 24 37 24.6716 37 25.5V25.5547C37 27.3721 37.0005 28.8126 36.9209 29.9795C36.8396 31.1715 36.6701 32.1874 36.2773 33.1357C35.3131 35.4635 33.4635 37.3132 31.1357 38.2773C30.1874 38.6701 29.1715 38.8396 27.9795 38.9209C26.8126 39.0005 25.3721 39 23.5547 39H17.3877C13.7123 39 10.8009 38.9997 8.52246 38.6934C6.1776 38.3781 4.27896 37.7145 2.78223 36.2178C1.28554 34.721 0.621874 32.8224 0.306641 30.4775C0.000385619 28.1991 -6.65149e-05 25.2876 0 21.6123V9.5C4.95908e-05 4.2535 4.25351 4.36755e-05 9.5 0ZM22.9092 2.12109C23.2864 1.95943 23.7136 1.95952 24.0908 2.12109L38.0908 8.12109C38.6423 8.35746 39 8.89996 39 9.5C39 10.1 38.6423 10.6425 38.0908 10.8789L38 10.918V18.0381C38 18.8665 37.3284 19.5381 36.5 19.5381C35.6717 19.538 35 18.8664 35 18.0381V12.2031L32.9453 13.084L32.1221 20.624C31.978 21.7766 31.259 22.8331 30.1201 23.3223C28.7472 23.9119 25.9243 25 23.5 25C21.0759 24.9999 18.2538 23.9119 16.8809 23.3223C15.7418 22.8331 15.023 21.7766 14.8789 20.624L14.876 20.6006L14.0547 13.084L8.90918 10.8789C8.3577 10.6425 8 10.1 8 9.5C8 8.89999 8.3577 8.35748 8.90918 8.12109L22.9092 2.12109ZM24.0908 16.8789C23.7136 17.0405 23.2864 17.0406 22.9092 16.8789L17.2217 14.4414L17.8564 20.2598C17.8801 20.4293 17.976 20.5274 18.0645 20.5654C19.4355 21.1542 21.7522 21.9999 23.5 22C25.2477 22 27.5644 21.1542 28.9355 20.5654C29.024 20.5274 29.1199 20.4294 29.1436 20.2598L29.7793 14.4414L24.0908 16.8789ZM13.3086 9.5L23.5 13.8682L33.6924 9.5L23.5 5.13184L13.3086 9.5Z" fill="white"/>
</svg>
