<svg width="48" height="48" viewBox="0 0 48 48" fill="none" xmlns="http://www.w3.org/2000/svg">
<path d="M23.1309 2.5C27.0267 2.49995 30.1299 2.50015 32.5615 2.88477C35.0914 3.28498 37.0994 4.12904 38.6533 5.95703C39.8797 7.39978 40.5569 9.14294 40.9443 11.2529C41.3271 13.3375 41.4433 15.8778 41.4814 18.9814C41.4916 19.8098 40.8284 20.4898 40 20.5C39.1717 20.5102 38.4917 19.8469 38.4814 19.0186C38.4434 15.9233 38.3259 13.6067 37.9932 11.7949C37.6651 10.0087 37.1449 8.81531 36.3672 7.90039C35.4317 6.79987 34.1916 6.17967 32.0928 5.84766C29.9222 5.50434 27.0566 5.5 23 5.5C18.9434 5.5 16.0778 5.50434 13.9072 5.84766C11.8084 6.17967 10.5683 6.79987 9.63281 7.90039C8.66737 9.03621 8.0985 10.601 7.80176 13.1973C7.50257 15.8153 7.5 19.2498 7.5 24C7.5 28.7502 7.50257 32.1847 7.80176 34.8027C8.0985 37.399 8.66737 38.9638 9.63281 40.0996C10.5683 41.2001 11.8084 41.8203 13.9072 42.1523C16.0778 42.4957 18.9434 42.5 23 42.5C23.8284 42.5 24.5 43.1716 24.5 44C24.5 44.8284 23.8284 45.5 23 45.5H22.8691C18.9733 45.5 15.8701 45.4999 13.4385 45.1152C10.9086 44.715 8.90059 43.871 7.34668 42.043C5.82257 40.2499 5.14696 37.9923 4.82129 35.1426C4.50041 32.3344 4.49998 28.7286 4.5 24.0986V23.9014C4.49998 19.2714 4.50041 15.6656 4.82129 12.8574C5.14696 10.0077 5.82257 7.7501 7.34668 5.95703C8.90059 4.12904 10.9086 3.28498 13.4385 2.88477C15.8701 2.50015 18.9733 2.49995 22.8691 2.5H23.1309ZM35.25 22.5C39.8063 22.5 43.5 26.1937 43.5 30.75C43.5 33.0953 42.5206 35.2124 40.9521 36.7129L41.8271 39.4697C42.0378 40.1328 42.2159 40.6916 42.3301 41.1377C42.4386 41.5618 42.5496 42.0933 42.4756 42.624C42.2534 44.2155 40.9291 45.4939 39.2559 45.5C38.6984 45.502 38.1807 45.2945 37.7969 45.1221C37.3879 44.9383 36.8825 44.6732 36.29 44.3623L36.248 44.3398C35.6563 44.0293 35.5331 43.9725 35.4268 43.9404C35.1473 43.8562 34.8527 43.8562 34.5732 43.9404C34.4669 43.9725 34.3437 44.0293 33.752 44.3398L33.71 44.3623C33.1175 44.6732 32.6121 44.9383 32.2031 45.1221C31.8193 45.2945 31.3016 45.502 30.7441 45.5C29.0709 45.4939 27.7466 44.2155 27.5244 42.624C27.4504 42.0933 27.5614 41.5618 27.6699 41.1377C27.7841 40.6916 27.9622 40.1328 28.1729 39.4697L29.0479 36.7129C27.4794 35.2124 26.5 33.0953 26.5 30.75C26.5 26.1937 30.1937 22.5 34.75 22.5H35.25ZM38.3408 38.4014C37.3857 38.7875 36.3417 39 35.25 39H34.75C33.6583 39 32.6143 38.7875 31.6592 38.4014L31.0459 40.335C30.818 41.0525 30.6666 41.5288 30.5762 41.8818C30.5183 42.1078 30.5057 42.2143 30.502 42.2441C30.5356 42.4016 30.6354 42.4721 30.709 42.4932C30.7527 42.4784 30.8368 42.4472 30.9736 42.3857C31.2885 42.2443 31.7119 42.0229 32.3584 41.6836C32.3895 41.6673 32.4206 41.6508 32.4512 41.6348C32.8985 41.3996 33.2903 41.194 33.707 41.0684C34.5514 40.8137 35.4486 40.8137 36.293 41.0684C36.7097 41.194 37.1015 41.3996 37.5488 41.6348C37.5794 41.6508 37.6105 41.6673 37.6416 41.6836C38.2881 42.0229 38.7115 42.2443 39.0264 42.3857C39.1632 42.4472 39.2473 42.4784 39.291 42.4932C39.3646 42.4721 39.4644 42.4016 39.498 42.2441C39.4943 42.2143 39.4817 42.1078 39.4238 41.8818C39.3334 41.5288 39.182 41.0525 38.9541 40.335L38.3408 38.4014ZM34.75 25.5C31.8505 25.5 29.5 27.8505 29.5 30.75C29.5 32.4947 30.3495 34.041 31.6641 34.998C32.5301 35.6285 33.5946 36 34.75 36H35.25C36.4054 36 37.4699 35.6285 38.3359 34.998C39.6505 34.041 40.5 32.4947 40.5 30.75C40.5 27.8505 38.1495 25.5 35.25 25.5H34.75ZM22 24.5C22.8284 24.5 23.5 25.1716 23.5 26C23.5 26.8284 22.8284 27.5 22 27.5H16C15.1716 27.5 14.5 26.8284 14.5 26C14.5 25.1716 15.1716 24.5 16 24.5H22ZM30 14.5C30.8284 14.5 31.5 15.1716 31.5 16C31.5 16.8284 30.8284 17.5 30 17.5H16C15.1716 17.5 14.5 16.8284 14.5 16C14.5 15.1716 15.1716 14.5 16 14.5H30Z" fill="white"/>
</svg>
