<svg width="43" height="43" viewBox="0 0 43 43" fill="none" xmlns="http://www.w3.org/2000/svg">
<path d="M8.49902 10.001C9.32745 10.0009 9.99994 10.6725 10 11.501C9.99997 12.3292 9.32823 13.0008 8.5 13.001C8.42191 13.001 8.34457 13.001 8.26855 13.001C6.81633 13.0006 5.73733 13.0007 4.87695 13.1719C4.0537 13.3357 3.67181 13.6104 3.42773 14.04C3.03954 14.7234 2.89308 15.5748 3.08008 17.0498C3.27241 18.5666 3.78128 20.5074 4.51367 23.2852L6.55469 31.0273C7.28714 33.8053 7.80233 35.7445 8.38184 37.1553C8.94573 38.5279 9.48843 39.1843 10.1514 39.5732C10.8108 39.9601 11.6322 40.1078 13.0742 39.9189C14.5612 39.7242 16.466 39.2096 19.2012 38.4648L21.1055 37.9463C21.9048 37.7286 22.7296 38.1997 22.9473 38.999C23.1649 39.7983 22.6929 40.6232 21.8936 40.8408L19.8818 41.3887C17.2795 42.0973 15.1775 42.6691 13.4639 42.8936C11.6818 43.1269 10.0954 43.0193 8.63281 42.1611C7.17386 41.3051 6.29472 39.9705 5.60645 38.2949C4.94244 36.6784 4.37981 34.5456 3.68164 31.8975L1.58496 23.9453C0.886646 21.297 0.324765 19.1646 0.104492 17.4277C-0.123911 15.6264 -0.0175523 14.0307 0.819336 12.5576C1.63506 11.122 2.9411 10.4981 4.29102 10.2295C5.45685 9.9975 6.82844 9.99928 8.15332 10.001C8.26889 10.0011 8.38433 10.001 8.49902 10.001ZM18.6641 0.821289C20.1246 -0.0171576 21.7063 -0.123716 23.4873 0.104492C25.2027 0.324294 27.3077 0.885534 29.918 1.58105L32.0381 2.14648C34.6482 2.84188 36.7533 3.40288 38.3496 4.06543C40.0066 4.75322 41.3267 5.6314 42.1719 7.08691C43.0178 8.54381 43.1245 10.1231 42.8945 11.8975C42.6733 13.6049 42.1083 15.6996 41.4092 18.2939L39.3057 26.0996C38.6066 28.6941 38.0418 30.7885 37.375 32.377C36.6819 34.0281 35.7968 35.3405 34.335 36.1797C32.8745 37.018 31.2927 37.1237 29.5117 36.8955C27.7963 36.6757 25.6914 36.1145 23.0811 35.4189L20.9609 34.8545C18.3509 34.1591 16.2457 33.5981 14.6494 32.9355C12.9923 32.2477 11.6724 31.3688 10.8271 29.9131C9.98127 28.4562 9.87552 26.8769 10.1055 25.1025C10.3268 23.3953 10.8908 21.301 11.5898 18.707L13.6934 10.9004C14.3924 8.30593 14.9572 6.21152 15.624 4.62305C16.3172 2.97201 17.2023 1.66046 18.6641 0.821289ZM23.1064 3.08105C21.6558 2.89518 20.8237 3.04023 20.1572 3.42285C19.4921 3.80477 18.9516 4.44548 18.3896 5.78418C17.8104 7.16404 17.296 9.0614 16.5615 11.7871L14.5156 19.3809C13.7811 22.1067 13.2723 24.0055 13.0801 25.4883C12.8936 26.9271 13.0399 27.7482 13.4219 28.4062C13.8047 29.0656 14.4491 29.6048 15.7988 30.165C17.188 30.7417 19.0981 31.2531 21.8389 31.9834L23.748 32.4922C26.4887 33.2224 28.4004 33.7286 29.8936 33.9199C31.3438 34.1057 32.1754 33.9607 32.8418 33.5781C33.507 33.1962 34.0473 32.5547 34.6094 31.2158C35.1886 29.8359 35.703 27.9385 36.4375 25.2129L38.4844 17.6191C39.2189 14.8935 39.7268 12.9945 39.9189 11.5117C40.1054 10.0728 39.9592 9.25182 39.5771 8.59375C39.1943 7.93447 38.5498 7.39618 37.2002 6.83594C35.811 6.25931 33.9009 5.74685 31.1602 5.0166L29.251 4.50781C26.5108 3.77771 24.5995 3.27243 23.1064 3.08105ZM19.7656 18.7412C19.9789 17.9407 20.8011 17.4645 21.6016 17.6777L26.374 18.9492C27.1745 19.1625 27.6508 19.9847 27.4375 20.7852C27.2241 21.5855 26.402 22.0609 25.6016 21.8477L20.8291 20.5762C20.0287 20.3629 19.5526 19.5416 19.7656 18.7412ZM21.8115 11.1475C22.0248 10.347 22.847 9.87072 23.6475 10.084L33.1934 12.627C33.9938 12.8402 34.4701 13.6624 34.2568 14.4629C34.0436 15.2634 33.2214 15.7397 32.4209 15.5264L22.875 12.9824C22.0748 12.7691 21.5985 11.9478 21.8115 11.1475Z" fill="white"/>
</svg>
