<svg width="43" height="43" viewBox="0 0 43 43" fill="none" xmlns="http://www.w3.org/2000/svg">
<path d="M21.5 43H21.4961L21.498 42.999L21.5 43ZM21.5 0.00195312C23.4459 0.00195312 24.7402 1.29386 27.084 3.63965C27.67 4.22565 27.67 5.17572 27.084 5.76172C26.498 6.3474 25.5488 6.34743 24.9629 5.76172C23.2429 4.04172 22.204 3.00391 21.498 3.00391C20.7921 3.00438 19.7538 4.04211 18.0342 5.76172C16.4343 7.36159 14.7584 8.07615 12.6025 8.07617C12.3366 8.07617 12.0527 8.06757 11.7588 8.05957C10.5968 8.02757 9.1525 7.98612 8.5625 8.57812C7.97671 9.16825 8.01874 10.6059 8.05273 11.7598C8.06073 12.0556 8.06835 12.3395 8.06836 12.6074C8.06836 14.7654 7.35482 16.4421 5.75488 18.04C4.03488 19.76 2.99609 20.7979 2.99609 21.5039C2.9963 22.2099 4.03506 23.2459 5.75488 24.9678C7.47464 26.6896 8.0683 28.0397 8.06836 30.3994C8.06836 30.6654 8.06073 30.9501 8.05273 31.2441C8.01874 32.4059 7.97868 33.8493 8.57031 34.4395C9.16031 35.0235 10.5988 34.9842 11.7568 34.9502C12.0507 34.9422 12.3347 34.9336 12.6006 34.9336C14.9605 34.9336 16.2548 35.4697 17.9268 37.1377C18.1527 37.3637 18.3782 37.6083 18.6182 37.8643C19.458 38.7681 20.6082 40.0035 21.4961 40.0039C22.3839 40.0039 23.5341 38.7662 24.374 37.8643C24.614 37.6063 24.8405 37.3617 25.0645 37.1377C26.7364 35.4678 28.0307 34.9316 30.3906 34.9316C30.6566 34.9316 30.9404 34.9402 31.2344 34.9482C32.3904 34.9822 33.8309 35.0235 34.4209 34.4375C35.0124 33.8473 34.9705 32.4038 34.9385 31.2441C34.9305 30.9501 34.9229 30.6654 34.9229 30.3994C34.9229 28.0377 35.4845 26.7176 37.2363 24.9678C38.9882 23.218 39.9939 22.2099 39.9941 21.5039C39.9941 20.7979 38.9563 19.762 37.2363 18.04C36.6504 17.4541 36.6505 16.504 37.2363 15.918C37.8223 15.332 38.7724 15.332 39.3584 15.918C41.7044 18.2639 42.9961 19.556 42.9961 21.502C42.996 23.4478 41.7043 24.742 39.3584 27.0859C38.1646 28.2797 37.9248 28.8358 37.9248 30.3975C37.9248 30.6355 37.9324 30.8923 37.9404 31.1562C37.9864 32.7362 38.0467 34.8762 36.7168 36.374C36.6208 36.508 36.5041 36.6237 36.3701 36.7197C34.8701 38.0515 32.7303 37.9894 31.1504 37.9434C30.8865 37.9354 30.6305 37.9277 30.3926 37.9277C28.8306 37.9277 28.2925 38.1519 27.1865 39.2559C27.0006 39.4418 26.7922 39.6654 26.5723 39.9014C25.3566 41.2091 23.6933 42.9982 21.498 42.999C19.3033 42.9977 17.6404 41.2089 16.4248 39.9014C16.2049 39.6635 15.9965 39.4419 15.8105 39.2539C14.7065 38.1499 14.1665 37.9277 12.6045 37.9277C12.3666 37.9277 12.1106 37.9354 11.8467 37.9434C10.2087 37.9894 7.96689 38.0554 6.46289 36.5654C4.94489 35.0594 5.00864 32.8013 5.05664 31.1533C5.06464 30.8895 5.07227 30.6334 5.07227 30.3955C5.07223 28.8339 4.8304 28.2777 3.63867 27.084C1.29276 24.7381 0.00107139 23.4459 0.000976562 21.5C0.000976562 19.554 1.29268 18.26 3.63867 15.916C4.68467 14.87 5.07227 13.9715 5.07227 12.6035C5.07226 12.3636 5.06464 12.1097 5.05664 11.8438C5.00864 10.2078 4.94463 7.96591 6.43457 6.46191C7.93857 4.94591 10.1967 5.00962 11.8467 5.05762C12.1106 5.06562 12.3665 5.07422 12.6045 5.07422C13.9724 5.07422 14.8701 4.68553 15.916 3.63965C18.2618 1.29384 19.5543 0.00216869 21.5 0.00195312ZM40.9365 0.109375C41.7044 -0.200453 42.5785 0.169809 42.8906 0.9375C43.2006 1.70547 42.8304 2.57957 42.0625 2.8916C38.3026 4.41357 33.8027 8.8836 29.0508 15.8193C25.3859 21.1699 22.8698 26.1163 22.8369 26.1777C22.5809 26.6837 22.062 27 21.498 27H21.458C20.8782 26.9838 20.3579 26.6334 20.126 26.1016C17.212 19.44 13.7401 19.5996 13.7041 19.6016C12.8842 19.7154 12.1266 19.1392 12.0146 18.3193C11.9029 17.4995 12.477 16.7419 13.2969 16.6299C13.506 16.6013 17.8287 16.0999 21.5303 22.2715C24.6764 16.6293 32.7387 3.42732 40.9365 0.109375Z" fill="white"/>
</svg>
