<svg width="56" height="56" viewBox="0 0 56 56" fill="none" xmlns="http://www.w3.org/2000/svg">
<path d="M0 28C0 12.536 12.536 0 28 0C43.464 0 56 12.536 56 28C56 43.464 43.464 56 28 56C12.536 56 0 43.464 0 28Z" fill="#F3FCF6"/>
<path d="M24.8125 15.8906C31.1229 14.2059 37.6005 17.5941 39.8584 23.5537C39.9567 23.8136 39.9252 24.1045 39.7744 24.3379C39.6234 24.5714 39.3704 24.7194 39.0928 24.7363L36.165 24.915C35.6827 24.9444 35.2677 24.5771 35.2383 24.0947C35.2089 23.6124 35.5762 23.1973 36.0586 23.168L37.7295 23.0664C35.4518 18.6408 30.2998 16.2364 25.2637 17.5811C19.4683 19.1285 16.0342 25.0493 17.5801 30.7988C19.1264 36.5496 25.0736 39.9677 30.8701 38.4199C35.1713 37.2714 38.1747 33.7121 38.8027 29.6006C38.8757 29.1229 39.3221 28.7942 39.7998 28.8672C40.2773 28.9403 40.6051 29.3867 40.5322 29.8643C39.8024 34.6432 36.3136 38.7773 31.3213 40.1104C24.601 41.9047 17.6891 37.9453 15.8896 31.2539C14.09 24.5611 18.091 17.6854 24.8125 15.8906ZM28 22.459C28.4832 22.459 28.875 22.8507 28.875 23.334V27.6377L30.9521 29.7148C31.2939 30.0566 31.2939 30.6104 30.9521 30.9521C30.6104 31.2938 30.0566 31.2939 29.7148 30.9521L27.3818 28.6191C27.2177 28.455 27.125 28.2321 27.125 28V23.334C27.125 22.8509 27.5169 22.4592 28 22.459Z" fill="#067647"/>
</svg>
